<?xml version="1.0" standalone="no"?>
<!DOCTYPE svg PUBLIC "-//W3C//DTD SVG 20010904//EN"
 "http://www.w3.org/TR/2001/REC-SVG-20010904/DTD/svg10.dtd">
<svg version="1.0" xmlns="http://www.w3.org/2000/svg"
 width="818.000000pt" height="360.000000pt" viewBox="0 0 818.000000 360.000000"
 preserveAspectRatio="xMidYMid meet">

<g transform="translate(0.000000,360.000000) scale(0.100000,-0.100000)"
fill="#000000" stroke="none">
<path d="M5797 3156 c-14 -13 -35 -43 -47 -67 l-22 -44 36 35 c39 37 81 100
67 100 -4 0 -20 -11 -34 -24z"/>
<path d="M6708 3140 c-10 -13 -18 -29 -18 -34 0 -5 -16 -28 -34 -51 -26 -31
-32 -45 -24 -53 17 -17 4 -24 -23 -13 -13 5 -20 10 -14 10 5 1 -7 13 -28 27
-30 20 -41 23 -52 14 -20 -17 -9 -30 24 -30 22 0 32 -8 47 -35 11 -21 33 -41
54 -50 19 -9 47 -22 62 -29 22 -12 26 -12 22 -1 -3 7 4 19 16 25 29 15 14 31
-37 40 l-38 6 38 17 c20 9 47 23 60 32 21 15 19 16 -30 9 l-51 -6 25 50 c13
28 23 61 21 74 l-3 23 -17 -25z"/>
<path d="M5380 3141 c-14 -5 -40 -16 -59 -25 -28 -15 -32 -22 -29 -46 2 -16 1
-27 -4 -24 -4 3 -8 14 -8 25 0 26 -15 24 -35 -3 -8 -13 -17 -21 -20 -18 -2 3
-14 -3 -25 -13 -16 -13 -19 -21 -11 -31 8 -9 6 -18 -4 -32 -9 -10 -15 -14 -14
-9 1 6 1 16 0 24 -2 25 -37 -16 -49 -58 -17 -55 -15 -74 11 -112 21 -31 26
-33 71 -30 51 3 109 19 73 20 -10 1 -15 6 -12 11 4 7 12 7 24 0 13 -6 24 -5
36 4 16 12 15 13 -13 14 -17 0 -41 6 -54 14 l-23 13 22 3 c14 2 20 8 16 18 -3
9 2 14 17 14 19 0 20 2 10 15 -10 12 -10 15 4 15 9 0 16 5 16 11 0 12 17 29
94 97 21 19 35 36 32 39 -3 3 -13 0 -22 -7 -13 -12 -17 -11 -25 1 -6 11 -9 8
-9 -11 -1 -22 -2 -23 -11 -7 -13 22 -2 57 24 80 21 18 17 20 -23 8z m-27 -56
c-3 -9 -8 -14 -10 -11 -3 3 -2 9 2 15 9 16 15 13 8 -4z"/>
<path d="M5075 3080 c10 -11 20 -20 23 -20 3 0 -3 9 -13 20 -10 11 -20 20 -23
20 -3 0 3 -9 13 -20z"/>
<path d="M4912 2903 c4 -12 -33 -63 -46 -63 -6 0 -4 4 4 10 8 5 11 12 7 16 -4
4 -15 1 -24 -8 -12 -13 -13 -22 -5 -46 7 -21 7 -33 -1 -41 -8 -8 -5 -11 12
-11 33 0 16 -18 -29 -31 -22 -7 -40 -16 -40 -22 0 -5 8 -6 18 -2 9 3 31 8 47
11 21 3 17 0 -13 -11 -40 -13 -46 -13 -70 3 l-27 17 26 -35 c15 -19 52 -48 83
-65 52 -28 57 -29 67 -12 5 9 15 17 20 17 6 0 7 -4 4 -10 -4 -6 8 -10 29 -10
23 0 39 6 45 18 16 26 13 1 -3 -30 -8 -15 -12 -37 -9 -50 5 -23 5 -23 -11 -3
-21 24 -10 0 16 -35 17 -24 36 -130 23 -130 -3 0 -19 7 -35 15 -17 9 -30 13
-30 9 0 -3 -12 1 -26 11 -15 9 -23 12 -19 6 5 -8 -1 -10 -21 -5 -21 5 -25 4
-19 -6 6 -10 4 -12 -8 -7 -9 3 -18 0 -21 -9 -7 -17 25 -19 42 -2 24 24 11 0
-18 -32 -36 -40 -38 -52 -7 -48 28 3 39 -15 12 -21 -23 -4 -35 -19 -34 -41 0
-9 5 -6 11 8 13 26 28 29 23 5 -30 -145 -57 -218 -79 -210 -9 3 -11 -6 -9 -30
2 -36 13 -60 13 -30 0 9 25 63 55 121 31 58 50 106 44 108 -6 2 0 15 13 29 67
74 64 68 42 84 -18 14 -17 15 10 9 20 -5 27 -4 22 4 -4 7 -2 10 6 7 8 -3 26 7
41 23 l27 28 -30 84 c-29 82 -29 85 -11 100 34 27 39 49 27 114 -7 33 -17 70
-24 81 -11 19 -11 18 -12 -7 0 -38 -14 -42 -27 -8 -9 23 -8 28 3 23 25 -9 15
25 -17 62 -19 21 -38 34 -46 31 -8 -3 -11 -2 -8 3 3 5 1 13 -5 16 -6 4 -9 3
-8 -2z m58 -97 c0 -3 -4 -8 -10 -11 -5 -3 -10 -1 -10 4 0 6 5 11 10 11 6 0 10
-2 10 -4z m70 -82 c0 -8 -4 -12 -10 -9 -5 3 -10 10 -10 16 0 5 5 9 10 9 6 0
10 -7 10 -16z m-165 -74 c-27 -12 -43 -12 -25 0 8 5 22 9 30 9 10 0 8 -3 -5
-9z m59 -336 c5 -14 4 -15 -9 -4 -17 14 -19 20 -6 20 5 0 12 -7 15 -16z"/>
<path d="M6127 2780 c-10 -16 -16 -30 -14 -30 2 0 13 14 25 30 13 17 19 30 14
30 -4 0 -16 -13 -25 -30z"/>
<path d="M5800 2750 c-6 -11 -8 -20 -6 -20 3 0 10 9 16 20 6 11 8 20 6 20 -3
0 -10 -9 -16 -20z"/>
<path d="M5349 2718 c-2 -22 3 -43 12 -54 14 -17 48 -5 46 16 -1 11 -7 16 -19
12 -11 -2 -18 -1 -17 4 3 19 -1 34 -11 34 -5 0 -11 -6 -11 -12z"/>
<path d="M6489 2689 c-23 -19 -23 -20 -2 -10 12 6 25 16 28 21 10 16 -1 12
-26 -11z"/>
<path d="M5133 2612 c-9 -13 -14 -14 -21 -5 -5 8 -8 -5 -8 -35 0 -26 -3 -69
-7 -97 l-6 -50 10 45 c6 25 15 52 20 60 32 53 39 72 32 85 -7 12 -10 12 -20
-3z"/>
<path d="M5940 2604 c0 -10 -5 -14 -16 -10 -8 3 -12 2 -9 -4 3 -6 17 -10 31
-10 14 0 22 -4 19 -10 -3 -5 1 -10 10 -10 35 0 181 -100 164 -113 -10 -9 -127
-39 -154 -41 -30 -1 -65 -20 -79 -44 -4 -7 -4 -12 1 -11 19 3 67 -3 56 -8 -7
-2 -13 -11 -13 -19 0 -7 -6 -11 -14 -8 -11 4 -13 0 -9 -15 6 -23 23 -29 23 -8
1 6 9 2 20 -11 16 -19 23 -21 39 -13 11 6 27 11 35 11 14 0 14 -2 -1 -18 -10
-10 -24 -17 -30 -14 -7 2 -13 -1 -13 -8 0 -6 -4 -9 -9 -6 -5 3 -12 -2 -15 -11
-4 -9 -2 -20 5 -23 6 -4 -7 -6 -30 -4 -35 2 -42 -1 -54 -24 -22 -44 -41 -72
-49 -72 -14 0 -9 16 13 39 11 12 22 33 24 46 2 21 -1 23 -16 14 -14 -7 -19 -6
-19 2 0 7 -3 10 -6 7 -3 -4 -1 -15 5 -26 16 -30 5 -46 -47 -72 -61 -30 -73
-40 -65 -54 4 -6 6 -23 4 -38 -2 -21 2 -28 16 -28 10 -1 33 -9 52 -19 l34 -18
-39 -5 c-21 -3 -46 -7 -54 -9 -10 -3 -14 3 -13 15 1 16 -4 18 -38 13 -24 -3
-47 -14 -59 -29 l-19 -23 -1 22 c0 26 56 73 79 66 9 -2 5 2 -9 10 -26 16 -52
11 -29 -5 11 -7 9 -8 -4 -4 -11 3 -24 3 -30 -1 -16 -9 -77 -11 -83 -1 -9 15 8
31 17 17 8 -12 11 -11 19 1 5 8 10 20 10 25 0 6 -5 3 -10 -5 -9 -13 -11 -13
-20 0 -7 11 -10 11 -10 2 0 -17 -30 -11 -52 11 -21 20 -24 35 -4 18 12 -10 17
-8 25 8 6 11 18 26 27 35 14 14 12 15 -17 9 -22 -4 -30 -3 -25 5 4 7 -1 10
-14 9 -11 -1 -20 -5 -20 -10 0 -4 -4 -5 -10 -2 -5 3 -10 2 -10 -4 0 -5 8 -15
18 -20 9 -6 12 -11 5 -11 -6 0 -14 4 -17 9 -10 15 -49 0 -83 -32 -26 -24 -33
-39 -33 -67 0 -60 44 -85 105 -61 51 20 54 20 60 10 4 -5 10 -7 15 -4 14 9 33
-34 22 -48 -5 -7 -13 -22 -16 -34 -7 -21 -5 -22 22 -17 17 4 32 1 36 -5 13
-21 45 -12 52 14 4 16 13 25 26 25 15 0 18 -5 14 -16 -4 -9 -2 -22 3 -28 12
-14 3 -56 -11 -56 -6 0 -8 6 -5 13 8 22 -55 11 -74 -12 -19 -23 -15 -59 7 -68
8 -3 25 2 39 11 14 9 25 12 25 7 0 -5 -6 -11 -12 -13 -8 -3 -5 -9 9 -16 20
-11 26 -8 63 30 41 43 49 46 152 48 20 1 54 -3 75 -9 l39 -11 -10 -45 c-6 -25
-15 -45 -19 -45 -5 0 -7 6 -4 13 2 6 -1 18 -8 24 -10 9 -14 9 -18 -2 -4 -8
-14 -11 -28 -8 -18 5 -20 3 -14 -16 5 -17 2 -21 -16 -21 -22 0 -22 0 -4 -14
19 -14 19 -15 2 -34 -17 -18 -17 -20 5 -35 25 -16 24 -21 -9 -31 -16 -5 -23
-2 -28 14 -8 24 -31 21 -29 -4 1 -9 -1 -17 -5 -17 -12 -3 -56 -9 -70 -11 -8
-1 -16 -10 -19 -20 -2 -10 -11 -18 -19 -18 -11 0 -11 4 -3 20 6 11 7 20 1 20
-13 0 -21 -25 -14 -48 2 -11 -2 -26 -10 -33 -12 -11 -11 -18 5 -46 37 -62 153
-166 189 -168 17 -2 18 0 4 15 -18 19 -9 54 11 46 9 -3 11 0 7 11 -5 13 -3 14
15 4 26 -14 25 -6 22 -145 -1 -79 -5 -113 -16 -123 -8 -8 -14 -23 -14 -33 0
-10 -4 -21 -9 -24 -5 -3 -12 -17 -15 -31 -3 -13 -22 -40 -40 -59 -19 -19 -36
-46 -38 -62 -2 -18 -12 -33 -26 -40 -13 -6 -29 -17 -35 -23 -19 -19 -49 -12
-79 16 -34 33 -37 75 -7 97 21 14 21 14 -9 30 -35 18 -42 32 -35 69 4 18 14
29 29 33 30 8 31 30 2 37 -22 6 -22 5 -4 -8 17 -13 17 -14 -10 -20 -59 -13
-64 -13 -58 -4 3 5 -3 10 -13 11 -10 0 -23 2 -29 2 -6 1 -22 9 -37 19 -15 10
-27 13 -27 8 0 -5 5 -11 12 -13 12 -4 -77 -78 -95 -78 -5 0 -6 10 -2 23 8 27
8 34 -4 117 -6 49 -10 60 -16 43 -9 -28 -7 -28 -54 1 -45 29 -51 40 -40 80 6
19 5 34 -2 43 -8 9 -8 13 0 13 6 0 11 -4 11 -10 0 -5 7 -10 15 -10 8 0 15 5
15 10 0 20 51 10 75 -15 25 -24 35 -85 15 -85 -18 0 -10 -19 10 -25 16 -5 19
-12 14 -28 -6 -20 -6 -20 10 -4 16 15 18 15 36 -3 11 -11 20 -26 20 -32 0 -9
3 -8 10 2 9 15 25 7 25 -13 0 -7 9 -13 20 -14 11 -2 14 0 8 3 -22 10 -14 24
13 24 14 0 23 4 19 10 -3 6 2 10 13 10 15 0 18 -5 15 -23 -4 -22 -2 -23 27
-19 17 2 29 9 27 16 -5 16 24 35 55 36 37 0 68 -35 68 -78 0 -29 3 -32 20 -27
13 4 23 0 32 -14 7 -12 15 -21 18 -21 4 0 7 38 9 84 3 91 -2 102 -61 132 -45
24 -115 110 -164 204 -31 59 -57 78 -82 58 -14 -11 -15 -11 -9 5 4 10 7 21 7
23 0 2 6 4 14 4 8 0 16 7 20 15 3 8 12 15 21 15 8 0 15 8 15 19 0 10 9 29 19
43 17 21 21 55 12 101 0 4 -18 5 -38 2 -46 -6 -73 2 -73 20 0 8 -9 19 -21 25
-23 13 -54 6 -44 -11 4 -6 0 -9 -11 -7 -13 2 -20 -5 -25 -27 -5 -21 -7 -24 -9
-10 -1 11 -6 3 -11 -20 -12 -52 -33 -79 -54 -71 -11 4 -14 13 -10 28 3 13 3
18 -2 13 -12 -16 -63 -17 -63 -2 0 15 -28 40 -55 51 -17 6 -17 9 -5 17 12 9
11 9 -5 4 -11 -4 -26 -9 -32 -12 -7 -3 -13 0 -13 7 0 18 -85 7 -105 -14 -9 -9
-22 -13 -28 -9 -6 4 -8 0 -4 -9 3 -9 0 -15 -6 -15 -42 1 -49 -3 -37 -18 7 -9
10 -19 6 -22 -4 -4 -12 -1 -17 7 -8 11 -9 8 -5 -12 5 -20 2 -28 -8 -28 -21 0
-8 -37 15 -43 19 -5 27 -37 9 -37 -5 0 -10 8 -10 17 0 14 -3 14 -12 5 -10 -10
-10 -14 0 -21 7 -4 18 -27 25 -52 7 -24 18 -45 25 -45 37 -4 37 -4 24 -13 -10
-6 -6 -10 14 -15 33 -9 54 -24 54 -38 0 -6 -7 -7 -16 -4 -9 3 -12 2 -9 -5 4
-6 13 -8 21 -5 8 3 28 -8 44 -24 17 -17 41 -30 53 -31 12 0 16 -3 10 -6 -7 -2
-13 -9 -13 -14 0 -4 7 -6 15 -3 14 6 19 -5 16 -32 -1 -12 22 -37 68 -72 27
-21 49 -114 24 -105 -7 3 -11 8 -9 12 2 3 -2 11 -9 18 -11 10 -15 10 -18 0 -3
-7 -6 -5 -6 5 -1 9 -6 20 -13 24 -7 5 -8 3 -3 -6 5 -8 4 -11 -3 -6 -6 4 -9 13
-6 21 4 8 11 12 18 8 6 -4 6 0 -2 9 -13 17 -56 32 -46 17 3 -5 12 -9 20 -9 12
0 12 -2 2 -14 -10 -10 -17 -11 -26 -3 -10 8 -16 7 -22 -4 -8 -11 -12 -11 -24
6 -8 11 -17 17 -21 13 -4 -3 3 -16 15 -28 12 -12 23 -27 24 -34 1 -6 8 -21 14
-33 7 -13 11 -23 10 -23 -2 0 -18 -4 -36 -9 -18 -6 -30 -6 -27 -1 3 5 -3 11
-13 14 -10 4 -40 31 -67 62 -54 63 -98 94 -133 94 -13 0 -38 10 -55 22 -17 12
-27 17 -23 10 15 -24 -10 -11 -37 20 -17 19 -26 39 -24 50 3 10 0 29 -7 42
-14 27 -46 61 -46 49 0 -4 -3 -18 -6 -31 -5 -18 -3 -21 11 -16 12 5 16 3 13
-7 -2 -7 -15 -16 -29 -20 -20 -6 -21 -7 -4 -8 17 -1 17 -3 5 -11 -9 -6 -10
-10 -3 -10 6 0 15 5 18 10 3 6 13 10 22 10 11 0 9 -5 -8 -20 l-24 -19 24 -1
c21 0 22 -2 10 -17 -13 -15 -11 -16 14 -9 22 5 27 3 28 -11 0 -10 2 -28 3 -40
2 -14 -3 -23 -11 -23 -7 0 -13 -5 -13 -11 0 -7 10 -5 26 6 l26 17 -3 -30 c-2
-16 3 -38 11 -47 14 -17 13 -17 -5 -7 -18 9 -21 8 -20 -16 1 -15 5 -35 9 -44
12 -25 0 -48 -24 -48 -18 0 -19 -3 -10 -21 7 -11 9 -27 6 -35 -7 -19 32 -40
47 -25 9 9 4 18 -16 35 -31 26 -34 36 -12 36 9 0 18 12 22 30 3 17 10 30 15
30 5 0 6 -4 3 -10 -12 -19 -14 -74 -3 -81 6 -4 11 -18 11 -32 0 -28 14 -31 35
-7 12 13 13 13 8 0 -3 -8 -9 -23 -12 -33 -4 -10 -13 -16 -21 -13 -8 3 -12 2
-10 -2 29 -62 42 -79 56 -76 24 6 43 -10 35 -29 -3 -9 -16 -17 -29 -17 -12 0
-33 -8 -46 -19 -13 -10 -31 -21 -39 -24 -11 -4 -10 -6 4 -6 18 -1 17 -4 -9
-31 -26 -28 -24 -36 8 -31 4 0 7 -3 7 -9 0 -5 -7 -10 -16 -10 -10 0 -14 -6
-11 -14 4 -11 1 -13 -11 -9 -9 3 -14 3 -10 -2 16 -18 -24 -35 -98 -40 l-79 -6
50 29 c41 23 55 27 78 19 23 -8 32 -6 45 8 16 16 16 17 -3 15 -11 -1 -29 -2
-40 -1 -19 1 -19 2 2 16 35 25 52 68 38 95 -12 22 -12 22 -18 1 -3 -11 -16
-26 -30 -32 -21 -10 -29 -9 -42 5 -21 21 -27 20 -23 -1 4 -21 -20 -53 -39 -53
-7 0 -13 -6 -13 -14 0 -7 -6 -19 -14 -25 -12 -10 -13 -8 -9 11 6 26 48 70 57
61 3 -4 6 -2 6 3 0 10 -88 54 -108 54 -7 0 -10 -5 -6 -11 4 -7 1 -10 -7 -7
-21 7 -59 -33 -59 -62 0 -24 -3 -25 -39 -22 -23 2 -42 -1 -46 -8 -5 -9 -2 -10
13 -6 11 4 23 3 26 -2 3 -5 18 -7 33 -5 l28 4 -25 -15 c-14 -8 -27 -10 -31 -5
-3 5 -20 6 -38 3 -27 -6 -30 -9 -17 -16 9 -5 21 -6 28 -2 8 5 9 2 5 -9 -5 -12
-1 -17 13 -17 10 0 22 5 25 10 3 6 16 10 28 10 16 0 18 -3 9 -9 -11 -7 -10
-10 3 -15 22 -8 40 -8 32 1 -14 13 30 32 73 32 36 0 41 -2 27 -10 -10 -6 -31
-7 -47 -4 -19 4 -30 3 -30 -4 0 -6 11 -11 24 -11 13 0 26 -4 28 -10 5 -15 215
-15 235 1 14 12 15 12 9 0 -7 -10 -2 -12 21 -7 23 5 32 3 37 -9 4 -12 -4 -20
-29 -31 -41 -17 -48 -17 -40 -4 11 18 -12 10 -30 -10 l-19 -21 184 6 c101 3
186 8 189 11 3 3 -54 4 -126 2 -109 -2 -129 -1 -120 10 8 10 25 12 63 7 65 -8
104 1 104 25 0 10 8 24 17 31 15 12 16 12 11 -6 -15 -53 -18 -50 59 -46 82 4
162 -7 143 -19 -8 -5 10 -11 46 -14 140 -15 143 -16 137 -33 -5 -12 -2 -15 10
-10 21 8 21 3 1 -18 -27 -27 -1 -45 65 -45 58 0 100 14 71 24 -8 3 -23 6 -33
8 -18 3 -18 4 0 23 17 19 31 20 318 21 410 1 874 20 1088 45 187 21 210 26
214 46 6 30 -133 65 -307 78 -189 14 -215 17 -240 30 -32 16 -54 41 -43 48 4
3 22 8 39 11 41 9 58 30 76 93 15 50 15 51 -8 62 -27 12 -31 26 -9 35 9 3 14
15 12 28 -2 13 2 34 9 48 13 25 14 25 14 3 0 -14 6 -23 15 -23 8 0 15 7 15 15
0 25 26 17 40 -12 13 -27 13 -28 19 -6 3 13 14 32 24 43 22 26 21 32 -4 64
-27 34 -11 33 66 -5 68 -33 160 -52 138 -28 -18 18 -16 34 2 19 8 -7 15 -8 15
-3 0 16 -53 61 -90 77 l-35 14 30 12 c21 8 40 9 63 2 50 -16 38 -4 -29 28 -76
36 -107 29 -166 -35 l-41 -45 3 42 c4 60 91 205 202 337 30 35 51 66 48 70 -4
3 -11 -2 -16 -12 -9 -16 -11 -16 -31 3 -21 19 -21 21 -5 37 15 15 21 16 38 5
21 -13 44 -7 34 9 -3 5 0 6 7 4 8 -3 14 2 15 14 1 12 -6 23 -18 26 -11 4 -17
11 -13 16 3 5 9 7 13 5 10 -7 52 40 44 48 -13 13 -23 5 -23 -16 -1 -21 -1 -22
-11 -5 -9 14 -7 21 7 32 11 7 23 11 28 8 5 -4 6 -1 2 5 -9 15 -43 16 -51 2 -8
-14 -25 -3 -25 16 0 8 4 12 10 9 6 -4 7 1 3 11 -5 13 -3 15 7 9 8 -5 11 -4 6
3 -8 14 -33 5 -58 -20 -18 -18 -18 -19 9 -29 22 -8 24 -12 13 -19 -12 -8 -13
-15 -3 -42 l13 -33 -38 40 c-20 22 -41 39 -47 37 -5 -2 -4 3 4 10 11 10 14 10
18 1 3 -7 9 -13 14 -13 6 0 5 8 -1 20 -12 23 -4 44 12 34 8 -5 9 -1 5 10 -4
10 -3 15 3 11 6 -3 10 -1 10 4 0 6 8 11 18 12 10 0 12 3 4 6 -6 2 -10 8 -8 12
2 3 -11 16 -30 29 -31 20 -34 20 -34 5 -1 -19 -30 -64 -31 -47 0 5 -4 -2 -10
-14 -10 -27 -4 -42 17 -42 8 0 12 -4 9 -10 -4 -6 -15 -4 -30 6 -23 15 -25 15
-31 0 -5 -14 -9 -12 -21 10 -10 21 -11 29 -1 35 18 11 -8 39 -33 34 -19 -4
-24 7 -31 63 -2 12 -7 23 -13 24 -11 1 -13 -67 -5 -160 4 -35 3 -65 -2 -68
-15 -9 -8 -53 10 -63 15 -9 15 -10 -5 -11 -13 0 -23 -4 -23 -9 0 -12 39 -26
63 -22 10 1 17 -4 17 -13 0 -8 10 -21 22 -27 21 -11 21 -12 2 -27 -15 -12 -16
-13 -2 -9 18 6 21 0 33 -58 4 -25 -3 -44 -42 -105 -26 -41 -55 -83 -64 -93
-14 -16 -17 -16 -22 -3 -4 9 -3 16 2 16 13 0 20 49 7 54 -7 3 -7 7 2 14 10 7
10 11 -3 22 -8 7 -15 21 -15 31 0 11 -6 18 -12 16 -8 -1 -12 6 -10 16 3 15 -1
17 -18 12 -20 -6 -21 -4 -14 31 6 32 5 36 -10 31 -9 -4 -16 -1 -16 5 0 6 -3 8
-7 5 -8 -9 -43 42 -43 63 0 9 18 33 40 55 22 21 38 41 35 43 -2 3 0 12 5 22
14 25 14 117 0 197 -7 39 -9 80 -5 90 5 10 7 26 6 37 -2 11 2 16 8 12 8 -5 8
1 1 19 -16 41 -13 145 4 151 14 6 30 39 40 84 4 20 0 28 -21 37 -32 15 -57 3
-79 -38 -14 -29 -14 -33 5 -72 26 -53 20 -59 -10 -10 -13 21 -26 40 -29 43 -3
3 -25 36 -49 75 -42 66 -60 87 -149 166 -22 19 -43 46 -47 60 -8 27 -53 79
-68 79 -6 0 -2 -10 9 -22 19 -21 19 -21 -1 -14 -11 5 -30 10 -42 11 -12 2 -27
6 -33 10 -9 5 -9 2 -2 -11 8 -16 6 -19 -13 -20 -16 -1 -22 3 -18 12 6 17 -13
19 -21 2 -3 -10 -8 -8 -19 4 -10 12 -17 14 -24 7 -13 -13 -36 -2 -28 12 3 5
-1 6 -10 2 -10 -3 -21 0 -27 8 -8 11 -9 10 -4 -3 3 -12 0 -18 -10 -18 -9 0
-18 9 -21 20 -3 11 -10 20 -15 20 -5 0 -7 -4 -4 -9 8 -12 -65 -4 -78 9 -5 5
-18 10 -28 10 -10 0 -18 5 -18 11 0 5 -4 8 -9 5 -5 -3 -11 1 -15 9 -7 20 -26
19 -26 -1z m230 -276 c0 -13 -23 -5 -28 10 -2 7 2 10 12 6 9 -3 16 -11 16 -16z
m-50 -7 c0 -5 -7 -11 -14 -14 -10 -4 -13 -1 -9 9 6 15 23 19 23 5z m-10 -41
c0 -5 -2 -10 -4 -10 -3 0 -8 5 -11 10 -3 6 -1 10 4 10 6 0 11 -4 11 -10z m-20
-19 c0 -5 -7 -11 -14 -14 -10 -4 -13 -1 -9 9 6 15 23 19 23 5z m290 -11 c0 -5
-4 -10 -10 -10 -5 0 -10 5 -10 10 0 6 5 10 10 10 6 0 10 -4 10 -10z m-296 -60
c-6 -6 -10 -3 -10 10 0 13 4 16 10 10 7 -7 7 -13 0 -20z m-632 -115 c11 2 15
-2 11 -11 -4 -10 -10 -11 -24 -3 -11 5 -24 7 -29 4 -6 -3 -7 1 -4 10 4 10 10
12 18 7 6 -5 19 -8 28 -7z m338 -10 c-7 -8 -18 -15 -24 -15 -6 0 -2 7 8 15 25
19 32 19 16 0z m255 5 c3 -5 2 -10 -4 -10 -5 0 -13 5 -16 10 -3 6 -2 10 4 10
5 0 13 -4 16 -10z m-248 -32 c0 -7 4 -22 9 -32 5 -14 4 -17 -4 -12 -7 4 -12
15 -12 24 0 13 -2 14 -9 3 -5 -8 -11 -9 -15 -3 -5 8 11 25 30 32 0 0 1 -6 1
-12z m76 -42 c-4 -6 -8 -5 -11 2 -3 10 -7 10 -18 1 -8 -6 -14 -8 -14 -4 0 4 8
14 17 21 19 13 37 -1 26 -20z m-433 13 c0 -16 -21 -20 -35 -6 -12 13 -11 15
11 15 13 0 24 -4 24 -9z m235 -79 c3 -5 1 -10 -4 -10 -6 0 -11 5 -11 10 0 6 2
10 4 10 3 0 8 -4 11 -10z m48 4 c8 -8 -3 -34 -14 -34 -5 0 -9 9 -9 20 0 19 11
26 23 14z m148 -8 c5 3 9 1 9 -5 0 -5 8 -12 18 -14 9 -3 -10 -5 -43 -5 -53 0
-57 1 -32 11 15 6 27 16 28 21 0 6 3 5 6 -2 2 -6 9 -10 14 -6z m-241 -57 c0
-5 -4 -9 -10 -9 -5 0 -10 7 -10 16 0 8 5 12 10 9 6 -3 10 -10 10 -16z m0 -83
c0 -2 -7 -6 -15 -10 -8 -3 -15 -1 -15 4 0 6 7 10 15 10 8 0 15 -2 15 -4z
m1450 -32 c0 -8 -4 -14 -10 -14 -5 0 -10 4 -10 9 0 5 -3 18 -7 28 -6 16 -5 16
10 4 9 -7 17 -20 17 -27z m-1036 -3 c3 -4 -3 -19 -14 -31 -23 -26 -25 -22 -8
15 12 28 14 29 22 16z m-42 -23 c-7 -7 -12 -8 -12 -2 0 14 12 26 19 19 2 -3
-1 -11 -7 -17z m83 2 c3 -5 2 -10 -4 -10 -5 0 -13 5 -16 10 -3 6 -2 10 4 10 5
0 13 -4 16 -10z m935 -20 c0 -5 -4 -10 -10 -10 -5 0 -10 5 -10 10 0 6 5 10 10
10 6 0 10 -4 10 -10z m10 -111 c0 -23 -16 -25 -24 -3 -10 25 -7 34 9 28 8 -4
15 -15 15 -25z m-1980 -3 c0 -3 -4 -8 -10 -11 -5 -3 -10 -1 -10 4 0 6 5 11 10
11 6 0 10 -2 10 -4z m2007 -21 c0 -8 -4 -12 -9 -9 -5 3 -6 10 -3 15 9 13 12
11 12 -6z m-1987 -10 c0 -8 -4 -15 -10 -15 -5 0 -10 7 -10 15 0 8 5 15 10 15
6 0 10 -7 10 -15z m-30 -16 c0 -5 -4 -9 -10 -9 -5 0 -10 7 -10 16 0 8 5 12 10
9 6 -3 10 -10 10 -16z m47 -11 c-3 -7 -5 -2 -5 12 0 14 2 19 5 13 2 -7 2 -19
0 -25z m269 5 c-10 -10 -19 5 -10 18 6 11 8 11 12 0 2 -7 1 -15 -2 -18z m-366
7 c0 -5 -4 -10 -10 -10 -5 0 -10 5 -10 10 0 6 5 10 10 10 6 0 10 -4 10 -10z
m2025 -10 c11 18 22 11 19 -12 -7 -43 -32 -149 -37 -154 -2 -3 -10 16 -16 42
-10 41 -10 49 6 67 16 19 17 20 1 14 -10 -3 -20 -2 -23 2 -3 5 2 12 11 15 14
5 14 9 3 23 -13 15 -12 15 8 5 14 -8 24 -9 28 -2z m-1905 -30 c0 -5 -4 -10
-10 -10 -5 0 -10 5 -10 10 0 6 5 10 10 10 6 0 10 -4 10 -10z m1361 -41 c16
-11 29 -27 29 -35 0 -9 -21 -45 -46 -81 -26 -35 -53 -81 -59 -101 -9 -24 -26
-45 -50 -60 -21 -13 -35 -20 -32 -15 3 5 2 15 -3 23 -7 12 -11 12 -26 -1 -16
-13 -16 -12 -6 6 21 39 40 60 48 52 5 -4 3 -12 -4 -16 -9 -5 -10 -14 -3 -32
l10 -24 0 27 c1 15 8 34 17 42 8 9 13 20 9 25 -3 6 1 26 9 45 13 32 13 34 -2
30 -9 -3 -6 1 8 9 14 9 28 13 33 10 4 -2 14 11 22 29 8 18 15 26 15 18 1 -8 6
-2 12 14 9 25 8 31 -8 43 -10 7 -14 13 -10 13 4 0 21 -9 37 -21z m578 -51
c-21 -29 -24 -31 -27 -12 -2 11 2 33 8 49 10 26 12 27 27 13 14 -15 14 -19 -8
-50z m-599 38 c0 -3 -4 -8 -10 -11 -5 -3 -10 -1 -10 4 0 6 5 11 10 11 6 0 10
-2 10 -4z m-570 -36 c0 -3 -4 -11 -9 -19 -7 -10 -12 -10 -30 5 -32 28 -28 45
9 31 17 -6 30 -14 30 -17z m-629 -3 c-13 -13 -26 -3 -16 12 3 6 11 8 17 5 6
-4 6 -10 -1 -17z m449 7 c0 -8 -4 -12 -10 -9 -5 3 -10 10 -10 16 0 5 5 9 10 9
6 0 10 -7 10 -16z m220 1 c0 -8 -2 -15 -4 -15 -2 0 -6 7 -10 15 -3 8 -1 15 4
15 6 0 10 -7 10 -15z m17 -37 c-3 -8 -6 -5 -6 6 -1 11 2 17 5 13 3 -3 4 -12 1
-19z m83 18 c0 -3 -4 -8 -10 -11 -5 -3 -10 -1 -10 4 0 6 5 11 10 11 6 0 10 -2
10 -4z m-780 -42 c0 -8 -4 -14 -9 -14 -11 0 -22 26 -14 34 9 9 23 -3 23 -20z
m-73 -12 c10 1 28 -4 40 -13 26 -18 27 -55 2 -55 -10 0 -15 4 -13 8 3 4 2 8
-3 9 -47 4 -82 27 -61 40 9 6 8 10 -5 15 -9 3 -17 11 -17 17 0 5 9 2 19 -7 11
-10 28 -16 38 -14z m103 -2 c0 -5 -4 -10 -10 -10 -5 0 -10 5 -10 10 0 6 5 10
10 10 6 0 10 -4 10 -10z m337 -50 c26 0 31 -18 8 -26 -8 -4 -12 -11 -8 -18 3
-6 -6 0 -20 13 -15 14 -27 31 -27 40 0 12 3 12 12 3 7 -7 22 -12 35 -12z
m1233 -15 c0 -8 -4 -15 -10 -15 -5 0 -10 7 -10 15 0 8 5 15 10 15 6 0 10 -7
10 -15z m-552 -30 c-6 -14 -15 -25 -19 -25 -5 0 -3 11 3 25 6 14 15 25 19 25
5 0 3 -11 -3 -25z m-30 -54 c-2 -5 6 -17 17 -26 20 -16 20 -16 -2 -10 -17 5
-22 3 -17 -8 3 -8 1 -17 -4 -21 -7 -4 -10 60 -3 72 3 6 11 1 9 -7z m-750 -32
c2 -23 2 -23 -13 -5 -18 24 -20 39 -2 34 6 -3 13 -15 15 -29z m445 -19 c3 -25
6 -49 7 -55 1 -5 2 -17 1 -25 -1 -13 -2 -13 -11 0 -9 14 -15 138 -6 129 2 -2
6 -24 9 -49z m277 10 c0 -5 -5 -10 -11 -10 -5 0 -7 5 -4 10 3 6 8 10 11 10 2
0 4 -4 4 -10z m-440 -10 c0 -5 -4 -10 -9 -10 -6 0 -13 5 -16 10 -3 6 1 10 9
10 9 0 16 -4 16 -10z m-897 -16 c3 -4 2 -16 -4 -26 -13 -24 -33 -10 -23 15 6
18 16 21 27 11z m907 -9 c-9 -10 -9 -15 -1 -15 16 0 14 -25 -4 -40 -10 -9 -15
-9 -15 -1 0 6 5 11 10 11 18 0 11 18 -10 25 -27 8 -25 23 3 28 12 2 24 5 26 6
2 0 -2 -6 -9 -14z m180 0 c0 -8 -4 -15 -10 -15 -5 0 -7 7 -4 15 4 8 8 15 10
15 2 0 4 -7 4 -15z m-740 -97 c0 -6 -7 -5 -15 2 -8 7 -15 17 -15 22 0 6 7 5
15 -2 8 -7 15 -17 15 -22z m-282 -1 c5 -25 -40 -118 -46 -94 -2 9 -8 17 -14
17 -6 0 -8 14 -3 36 5 31 4 36 -9 31 -10 -4 -16 -1 -16 8 0 19 17 19 35 1 8
-8 11 -23 8 -37 l-6 -24 20 25 c23 27 21 46 -5 54 -10 2 -6 4 8 3 15 -1 26 -9
28 -20z m-98 -7 c0 -5 -2 -10 -4 -10 -3 0 -8 5 -11 10 -3 6 -1 10 4 10 6 0 11
-4 11 -10z m490 -31 c0 -18 -2 -19 -15 -9 -8 7 -15 16 -15 21 0 5 7 9 15 9 9
0 15 -9 15 -21z m120 14 c0 -12 -33 -43 -47 -43 -17 0 -17 10 4 32 16 18 43
25 43 11z m-466 -37 c-8 -32 -26 -35 -22 -3 3 20 18 40 26 33 1 -2 0 -15 -4
-30z m1840 17 c4 -10 4 -14 0 -11 -4 4 -16 2 -28 -4 -21 -11 -21 -11 -2 11 23
25 22 25 30 4z m-1518 -17 c18 -14 18 -15 -11 -22 -37 -10 -67 -6 -77 10 -4 6
-8 7 -8 3 0 -4 -10 -2 -22 4 -17 9 -24 9 -33 -5 -7 -8 -15 -13 -18 -9 -29 28
131 46 169 19z m-291 -10 c12 -12 12 -15 1 -19 -8 -3 -16 2 -19 14 -6 23 -1
24 18 5z m541 -17 c3 -5 -6 -9 -20 -9 -24 0 -41 12 -30 23 7 7 43 -3 50 -14z
m-437 -30 c-12 -12 -19 -29 -16 -40 6 -23 1 -24 -18 -5 -12 12 -12 15 0 20 19
7 19 26 1 26 -8 0 -17 4 -20 9 -4 5 5 8 19 6 14 -1 28 2 31 7 3 4 9 6 14 3 5
-3 0 -15 -11 -26z m236 -12 c17 -13 17 -15 -6 -30 -28 -20 -38 -21 -76 -6
l-28 11 24 19 c27 22 60 24 86 6z m-298 -49 c-3 -7 -5 -2 -5 12 0 14 2 19 5
13 2 -7 2 -19 0 -25z m-66 0 c11 -21 11 -22 -4 -9 -10 7 -17 17 -17 22 0 15 9
10 21 -13z m517 -23 c-6 -14 -13 -23 -15 -21 -5 5 15 46 22 46 3 0 -1 -11 -7
-25z m-369 -8 c14 -22 13 -22 -7 -4 -12 11 -23 14 -26 9 -3 -6 0 -12 6 -15 9
-3 7 -7 -5 -12 -11 -5 -23 -3 -30 5 -9 10 -9 11 1 6 14 -8 16 6 3 20 -6 5 0
10 17 11 19 1 32 -5 41 -20z m71 13 c0 -5 -4 -10 -10 -10 -5 0 -10 5 -10 10 0
6 5 10 10 10 6 0 10 -4 10 -10z m1510 -10 c0 -5 -2 -10 -4 -10 -3 0 -8 5 -11
10 -3 6 -1 10 4 10 6 0 11 -4 11 -10z m-1757 -46 c-10 -9 -12 -13 -5 -9 6 3
12 1 12 -4 0 -15 -27 -14 -36 1 -4 6 0 16 9 23 10 7 17 18 17 26 1 9 4 8 11
-4 8 -14 7 -22 -8 -33z m1707 -14 c-25 -35 -37 -43 -44 -31 -3 5 1 11 9 15 8
3 15 11 15 19 0 17 21 38 32 31 5 -3 -1 -18 -12 -34z m-1545 20 c-3 -5 -11
-10 -16 -10 -6 0 -7 5 -4 10 3 6 11 10 16 10 6 0 7 -4 4 -10z m175 -60 c0 -11
-2 -20 -4 -20 -2 0 -6 9 -9 20 -3 11 -1 20 4 20 5 0 9 -9 9 -20z m53 -20 c7
-27 5 -35 -8 -43 -13 -7 -14 -12 -4 -23 13 -16 9 -17 -51 -15 -34 1 -101 -27
-70 -29 8 -1 26 -3 40 -5 14 -1 32 3 40 9 13 9 13 9 2 -6 -8 -9 -10 -23 -6
-29 4 -8 3 -9 -5 -5 -7 4 -15 -2 -20 -16 -10 -23 -10 -23 -10 3 -1 21 -7 28
-31 33 -37 7 -38 25 -3 66 22 26 32 31 60 28 28 -3 32 -1 27 14 -7 24 5 60 19
55 6 -2 15 -18 20 -37z m1327 37 c0 -2 -10 -12 -22 -23 l-23 -19 19 23 c18 21
26 27 26 19z m-1115 -67 c-11 -12 -31 -20 -49 -20 l-31 0 25 20 c14 11 36 20
49 20 23 0 24 -1 6 -20z m1080 0 c-3 -5 -12 -7 -20 -3 -21 7 -19 13 6 13 11 0
18 -4 14 -10z m-1177 -55 c-3 -3 -9 2 -12 12 -6 14 -5 15 5 6 7 -7 10 -15 7
-18z m-23 -5 c3 -5 1 -10 -4 -10 -6 0 -11 5 -11 10 0 6 2 10 4 10 3 0 8 -4 11
-10z m158 1 c19 -2 4 -21 -16 -21 -14 0 -24 6 -24 14 0 7 7 12 16 11 9 -2 19
-4 24 -4z m937 -6 c10 -13 9 -15 -8 -15 -22 0 -36 13 -25 24 10 10 20 7 33 -9z
m-1620 -5 c0 -5 -4 -10 -9 -10 -6 0 -13 5 -16 10 -3 6 1 10 9 10 9 0 16 -4 16
-10z m620 0 c0 -5 -7 -10 -16 -10 -8 0 -12 5 -9 10 3 6 10 10 16 10 5 0 9 -4
9 -10z m-554 -37 c-10 -11 -37 -12 -30 -2 3 5 12 9 21 9 9 0 13 -3 9 -7z m-16
-27 c0 -2 -7 -6 -15 -10 -8 -3 -15 -1 -15 4 0 6 7 10 15 10 8 0 15 -2 15 -4z
m-140 -26 c0 -5 -5 -10 -11 -10 -5 0 -7 5 -4 10 3 6 8 10 11 10 2 0 4 -4 4
-10z"/>
<path d="M6375 1310 c-4 -12 -5 -24 -2 -27 3 -2 8 5 12 17 4 12 5 24 2 27 -3
2 -8 -5 -12 -17z"/>
<path d="M5612 2587 c-32 -15 -23 -30 29 -46 24 -8 58 -21 76 -29 31 -15 32
-15 59 18 28 32 42 66 23 54 -5 -3 -7 -9 -4 -14 3 -4 -2 -11 -11 -14 -9 -3
-12 -2 -8 5 4 6 -1 9 -12 8 -11 -2 -25 0 -31 4 -7 5 -13 6 -13 2 0 -3 -10 0
-22 6 -31 17 -58 19 -86 6z"/>
<path d="M6056 2584 c-5 -14 -4 -15 9 -4 17 14 19 20 6 20 -5 0 -12 -7 -15
-16z"/>
<path d="M6540 2570 c-9 -6 -10 -10 -3 -10 6 0 15 5 18 10 8 12 4 12 -15 0z"/>
<path d="M6481 2548 c-5 -13 -7 -25 -4 -28 5 -6 33 30 33 42 0 17 -21 7 -29
-14z"/>
<path d="M6080 2480 c-8 -5 -11 -12 -7 -16 4 -4 13 -2 19 4 15 15 7 24 -12 12z"/>
<path d="M6047 2474 c-3 -4 -20 -9 -37 -13 -45 -9 -41 -23 8 -28 39 -4 42 -2
42 21 0 27 -2 30 -13 20z"/>
<path d="M6991 2433 c7 -12 15 -20 18 -17 3 2 -3 12 -13 22 -17 16 -18 16 -5
-5z"/>
<path d="M6586 2395 c11 -17 43 -65 72 -108 l53 -78 21 26 c11 14 19 28 17 30
-8 8 -60 71 -82 97 -12 16 -32 29 -44 31 -11 2 -29 9 -38 17 -15 13 -15 11 1
-15z"/>
<path d="M5690 2369 c0 -5 5 -7 10 -4 6 3 10 8 10 11 0 2 -4 4 -10 4 -5 0 -10
-5 -10 -11z"/>
<path d="M7023 2373 c-14 -5 -18 -43 -5 -43 4 0 15 12 25 25 18 25 11 31 -20
18z"/>
<path d="M6825 2333 c6 -36 24 -68 26 -47 0 5 2 17 4 28 4 20 -14 56 -29 56
-4 0 -5 -17 -1 -37z"/>
<path d="M6968 2333 c7 -3 16 -2 19 1 4 3 -2 6 -13 5 -11 0 -14 -3 -6 -6z"/>
<path d="M5860 2316 c-8 -10 -7 -15 2 -18 16 -6 38 1 38 12 0 15 -28 19 -40 6z"/>
<path d="M4773 2312 c-18 -2 -33 -8 -33 -13 0 -14 93 -6 97 8 3 7 -4 11 -14
10 -10 -1 -33 -3 -50 -5z"/>
<path d="M4690 2280 c-13 -9 -13 -10 0 -10 16 0 46 -57 36 -67 -3 -4 -6 1 -6
10 0 10 -4 17 -10 17 -12 0 -12 -2 0 -35 10 -26 9 -27 -15 -21 -14 4 -26 2
-26 -4 -1 -5 -2 -16 -3 -22 -1 -7 5 -18 14 -25 12 -10 18 -9 29 5 13 16 13 16
8 0 -4 -12 -1 -18 8 -18 19 0 19 -8 1 -26 -19 -18 -30 -18 -22 1 4 10 -1 15
-14 15 -14 0 -18 -5 -13 -17 6 -15 4 -16 -9 -5 -13 10 -17 10 -22 -3 -3 -9 -2
-14 3 -11 5 3 13 0 19 -7 8 -10 2 -12 -29 -12 -34 0 -39 2 -36 17 6 23 -12 35
-24 17 -7 -11 -10 -9 -15 9 -7 25 -19 29 -28 7 -8 -23 -28 -18 -69 16 -37 30
-39 31 -57 14 -26 -23 -25 -57 0 -72 16 -11 18 -10 13 4 -10 25 23 44 53 31
14 -7 23 -17 20 -24 -3 -8 0 -17 6 -20 8 -5 5 -10 -8 -15 -17 -7 -17 -8 -1 -8
12 -1 17 -9 17 -30 0 -16 3 -36 6 -45 9 -25 63 -8 97 31 17 20 36 32 44 29 8
-3 11 -1 8 4 -4 6 7 18 24 28 17 9 31 21 31 25 0 5 5 5 12 1 6 -4 8 -3 4 4 -7
12 28 27 43 18 10 -7 21 17 21 46 0 12 -8 22 -20 25 -16 4 -18 8 -9 19 9 11 8
14 -5 14 -20 0 -20 9 -2 36 16 23 12 33 -21 52 -27 14 -33 15 -53 2z m60 -36
c0 -8 -5 -12 -10 -9 -6 4 -8 11 -5 16 9 14 15 11 15 -7z m-180 -250 c0 -14
-21 -19 -33 -7 -9 9 13 34 24 27 5 -3 9 -12 9 -20z"/>
<path d="M7284 2276 c-8 -21 3 -66 16 -66 13 0 13 67 0 75 -6 3 -13 -1 -16 -9z"/>
<path d="M4795 2270 c-3 -5 -2 -10 4 -10 5 0 13 5 16 10 3 6 2 10 -4 10 -5 0
-13 -4 -16 -10z"/>
<path d="M6950 2261 c-7 -14 -7 -22 0 -26 12 -7 40 12 40 27 0 6 -8 4 -17 -3
-15 -12 -16 -12 -10 4 9 23 0 22 -13 -2z"/>
<path d="M5910 2255 c0 -8 2 -15 4 -15 2 0 6 7 10 15 3 8 1 15 -4 15 -6 0 -10
-7 -10 -15z"/>
<path d="M7356 2244 c-11 -28 -7 -35 14 -24 11 6 17 16 14 25 -8 20 -20 19
-28 -1z"/>
<path d="M7050 2230 c-9 -6 -10 -10 -3 -10 6 0 15 5 18 10 8 12 4 12 -15 0z"/>
<path d="M7088 2223 c7 -3 16 -2 19 1 4 3 -2 6 -13 5 -11 0 -14 -3 -6 -6z"/>
<path d="M4445 2205 c-3 -8 -7 -22 -10 -30 -5 -17 25 -47 49 -51 11 -2 13 3 6
19 -4 12 -13 21 -19 20 -17 -4 -13 8 7 23 15 12 15 15 2 24 -21 14 -30 12 -35
-5z"/>
<path d="M4586 2212 c-8 -13 10 -62 24 -62 14 0 12 20 -4 49 -8 14 -16 19 -20
13z"/>
<path d="M4790 2190 c0 -5 5 -10 10 -10 6 0 10 5 10 10 0 6 -4 10 -10 10 -5 0
-10 -4 -10 -10z"/>
<path d="M7186 2181 c-4 -5 1 -8 9 -7 21 3 31 16 12 16 -9 0 -18 -4 -21 -9z"/>
<path d="M7282 2169 c2 -6 8 -10 13 -10 5 0 11 4 13 10 2 6 -4 11 -13 11 -9 0
-15 -5 -13 -11z"/>
<path d="M4363 2156 c4 -11 1 -13 -10 -9 -11 4 -14 2 -11 -8 2 -8 14 -15 26
-17 26 -4 42 26 21 39 -21 13 -32 11 -26 -5z"/>
<path d="M5830 2155 c0 -8 2 -15 4 -15 2 0 6 7 10 15 3 8 1 15 -4 15 -6 0 -10
-7 -10 -15z"/>
<path d="M7350 2162 c0 -5 7 -15 15 -22 8 -7 15 -8 15 -2 0 5 -7 15 -15 22 -8
7 -15 8 -15 2z"/>
<path d="M6990 2142 c0 -12 19 -26 26 -19 2 2 -2 10 -11 17 -9 8 -15 8 -15 2z"/>
<path d="M5744 2129 c-3 -6 -1 -16 5 -22 8 -8 11 -5 11 11 0 24 -5 28 -16 11z"/>
<path d="M5640 2111 c-17 -5 -25 -14 -25 -28 0 -12 -4 -25 -8 -29 -16 -16 -6
-31 19 -28 14 1 28 5 31 8 3 3 13 1 23 -4 14 -8 17 -4 15 28 0 22 -6 37 -13
36 -7 -1 -19 -2 -28 -2 -9 -1 -12 -7 -8 -14 4 -7 3 -8 -5 -4 -14 9 -5 26 15
26 8 0 14 5 14 10 0 6 -1 10 -2 9 -2 -1 -14 -4 -28 -8z m5 -60 c3 -5 1 -12 -5
-16 -5 -3 -10 1 -10 9 0 18 6 21 15 7z"/>
<path d="M5153 2093 c2 -12 6 -26 10 -29 11 -11 8 19 -3 36 -8 12 -9 10 -7 -7z"/>
<path d="M4330 2063 c0 -10 7 -27 15 -37 12 -16 18 -17 27 -8 10 10 10 15 -2
22 -8 5 -11 10 -6 10 11 0 -14 30 -25 30 -5 0 -9 -8 -9 -17z"/>
<path d="M5585 2070 c3 -5 8 -10 11 -10 2 0 4 5 4 10 0 6 -5 10 -11 10 -5 0
-7 -4 -4 -10z"/>
<path d="M6872 2064 c-11 -12 -8 -14 18 -14 34 0 38 5 13 19 -13 6 -22 5 -31
-5z"/>
<path d="M4427 2023 c-4 -3 -7 -15 -7 -26 0 -11 -8 -26 -17 -33 -17 -13 -17
-13 0 -14 22 0 67 50 60 67 -5 14 -25 17 -36 6z"/>
<path d="M4705 1948 c-16 -6 -45 -13 -64 -16 -34 -7 -62 -35 -48 -48 4 -4 17
2 30 14 l23 21 0 -22 c0 -12 -4 -25 -8 -28 -10 -7 0 -39 13 -39 5 0 9 5 9 10
0 13 33 13 46 1 5 -5 21 -7 37 -4 24 5 27 10 26 42 -1 20 -3 28 -6 19 -5 -22
-17 -23 -33 -3 -7 8 -16 12 -21 9 -5 -3 -9 0 -9 6 0 6 -5 8 -12 4 -7 -4 -8 -3
-4 4 4 7 19 9 36 5 23 -4 30 -2 30 10 0 22 -10 26 -45 15z"/>
<path d="M4445 1940 c-8 -13 3 -30 20 -30 20 0 30 21 14 31 -18 11 -26 11 -34
-1z"/>
<path d="M4376 1913 c-4 -9 -3 -20 2 -25 11 -11 47 16 38 30 -11 17 -33 15
-40 -5z"/>
<path d="M6877 1913 c-10 -9 -9 -23 1 -23 5 0 9 7 9 15 0 17 -1 18 -10 8z"/>
<path d="M6920 1872 c0 -6 9 -29 20 -49 10 -20 17 -40 14 -44 -3 -5 2 -6 11
-2 12 4 13 8 4 13 -6 5 -9 15 -6 25 4 9 3 14 -3 10 -6 -4 -17 9 -25 27 -8 18
-14 27 -15 20z"/>
<path d="M7165 1870 c-3 -5 -1 -10 4 -10 6 0 11 5 11 10 0 6 -2 10 -4 10 -3 0
-8 -4 -11 -10z"/>
<path d="M4780 1840 c0 -5 7 -7 15 -4 8 4 15 8 15 10 0 2 -7 4 -15 4 -8 0 -15
-4 -15 -10z"/>
<path d="M4610 1824 c0 -8 5 -12 10 -9 6 4 8 11 5 16 -9 14 -15 11 -15 -7z"/>
<path d="M6997 1829 c7 -7 15 -10 18 -7 3 3 -2 9 -12 12 -14 6 -15 5 -6 -5z"/>
<path d="M7185 1830 c-3 -5 -1 -10 4 -10 6 0 11 5 11 10 0 6 -2 10 -4 10 -3 0
-8 -4 -11 -10z"/>
<path d="M7060 1820 c0 -5 6 -10 14 -10 8 0 17 -6 19 -12 4 -10 6 -10 6 -1 1
7 -8 17 -19 23 -14 7 -20 7 -20 0z"/>
<path d="M4640 1805 c0 -18 19 -40 26 -32 4 4 0 15 -9 24 -9 10 -17 13 -17 8z"/>
<path d="M4750 1801 c0 -6 -13 -25 -30 -41 -21 -20 -36 -27 -54 -24 -15 2 -28
-1 -33 -10 -10 -17 -35 -2 -46 28 -6 15 -10 17 -19 8 -7 -7 -18 -12 -26 -12
-12 0 -12 3 -2 15 15 18 1 19 -21 2 -9 -7 -14 -18 -12 -24 3 -7 -1 -13 -8 -13
-7 0 -10 -2 -8 -5 3 -2 20 0 38 5 39 11 64 3 56 -17 -4 -11 -1 -13 11 -9 12 4
14 1 9 -14 -7 -23 8 -26 50 -10 21 8 25 13 16 23 -8 10 -7 14 4 14 8 0 12 -4
9 -8 -2 -4 1 -11 7 -14 5 -4 8 -14 5 -22 -5 -11 1 -14 22 -11 26 3 27 6 33 73
4 39 5 72 3 74 -2 2 -4 -1 -4 -8z"/>
<path d="M5415 1789 c1 -17 7 -23 20 -21 14 3 16 -1 12 -17 -5 -21 7 -29 18
-11 3 5 -7 24 -23 41 -28 31 -29 32 -27 8z"/>
<path d="M6985 1800 c4 -6 11 -8 16 -5 14 9 11 15 -7 15 -8 0 -12 -5 -9 -10z"/>
<path d="M5890 1750 c0 -5 5 -10 10 -10 6 0 10 5 10 10 0 6 -4 10 -10 10 -5 0
-10 -4 -10 -10z"/>
<path d="M4401 1719 c-16 -26 -12 -29 17 -14 18 10 20 14 9 23 -10 8 -16 6
-26 -9z"/>
<path d="M7150 1718 c0 -4 4 -8 9 -8 6 0 12 4 15 8 3 5 -1 9 -9 9 -8 0 -15 -4
-15 -9z"/>
<path d="M4520 1699 c0 -6 -6 -9 -14 -6 -8 3 -17 -1 -20 -9 -7 -18 4 -45 15
-38 5 3 7 10 3 15 -3 5 5 18 18 29 13 11 17 19 11 20 -7 0 -13 -5 -13 -11z"/>
<path d="M4561 1663 c0 -25 1 -26 9 -8 12 27 12 35 0 35 -5 0 -10 -12 -9 -27z"/>
<path d="M5667 1673 c-4 -3 -7 -11 -7 -17 0 -6 5 -5 12 2 6 6 9 14 7 17 -3 3
-9 2 -12 -2z"/>
<path d="M4455 1640 c3 -5 8 -10 11 -10 2 0 4 5 4 10 0 6 -5 10 -11 10 -5 0
-7 -4 -4 -10z"/>
<path d="M4466 1615 c-24 -18 -12 -35 22 -31 15 2 32 4 39 5 7 0 10 8 7 16 -8
20 -24 19 -24 -1 0 -8 -5 -12 -10 -9 -6 4 -8 10 -5 15 10 15 -10 19 -29 5z"/>
<path d="M5706 1614 c-9 -24 -8 -25 14 -12 23 15 26 28 6 28 -8 0 -17 -7 -20
-16z"/>
<path d="M4416 1594 c-4 -10 -1 -14 6 -12 15 5 23 28 10 28 -5 0 -13 -7 -16
-16z"/>
<path d="M5815 1600 c4 -6 11 -8 16 -5 14 9 11 15 -7 15 -8 0 -12 -5 -9 -10z"/>
<path d="M4439 1547 c-9 -7 -14 -18 -12 -24 7 -21 38 -15 63 12 l23 25 -29 0
c-16 0 -36 -6 -45 -13z"/>
<path d="M4580 1550 c-12 -8 -12 -10 3 -16 9 -3 29 -3 45 0 27 6 27 6 6 -11
-11 -10 -31 -33 -43 -50 l-22 -33 25 0 c14 0 26 5 26 11 0 5 5 7 11 4 15 -10
55 2 75 23 10 9 22 17 28 17 6 0 12 10 14 23 2 12 -1 22 -7 22 -6 0 -11 -3
-11 -7 0 -5 -14 -16 -30 -25 -32 -18 -42 -8 -12 14 34 24 35 37 2 28 -17 -5
-44 -5 -62 1 -18 5 -33 9 -33 9 0 0 -7 -4 -15 -10z"/>
<path d="M7169 1523 c-13 -17 -13 -17 6 -3 11 8 22 16 24 17 2 2 0 3 -6 3 -6
0 -17 -8 -24 -17z"/>
<path d="M4500 1519 c0 -5 5 -7 10 -4 6 3 10 8 10 11 0 2 -4 4 -10 4 -5 0 -10
-5 -10 -11z"/>
<path d="M6843 1496 c4 -9 2 -16 -3 -16 -14 0 -12 -29 3 -44 6 -7 21 -15 31
-19 19 -7 19 -7 3 11 -16 18 -16 18 11 14 24 -3 28 0 30 23 1 20 -2 26 -16 24
-9 -2 -28 3 -41 10 -21 12 -23 11 -18 -3z"/>
<path d="M4736 1472 c-3 -6 -2 -13 3 -17 6 -3 8 -11 5 -18 -2 -7 3 -21 11 -32
14 -19 15 -17 9 20 -7 44 -18 62 -28 47z"/>
<path d="M7125 1460 c-3 -5 1 -10 9 -10 9 0 16 5 16 10 0 6 -4 10 -9 10 -6 0
-13 -4 -16 -10z"/>
<path d="M4472 1415 c-7 -15 -11 -30 -8 -32 7 -7 28 36 24 49 -2 6 -9 -2 -16
-17z"/>
<path d="M7162 1422 c-11 -9 -27 -28 -36 -42 l-15 -26 59 6 c58 6 90 23 111
61 7 15 2 17 -46 18 -37 0 -60 -5 -73 -17z"/>
<path d="M4420 1420 c0 -5 5 -10 11 -10 5 0 7 5 4 10 -3 6 -8 10 -11 10 -2 0
-4 -4 -4 -10z"/>
<path d="M4340 1390 c-8 -5 -12 -12 -9 -15 4 -3 12 1 19 10 14 17 11 19 -10 5z"/>
<path d="M7121 1313 c0 -16 3 -23 5 -16 3 7 13 9 22 6 15 -6 14 -3 -2 15 -24
28 -26 28 -25 -5z"/>
<path d="M6940 1161 c-40 -22 -74 -55 -69 -69 2 -6 28 12 58 39 30 27 53 49
50 49 -2 -1 -20 -9 -39 -19z"/>
<path d="M5125 1150 c-3 -6 1 -7 9 -4 18 7 21 14 7 14 -6 0 -13 -4 -16 -10z"/>
<path d="M5165 1130 c3 -5 10 -10 16 -10 5 0 9 5 9 10 0 6 -7 10 -16 10 -8 0
-12 -4 -9 -10z"/>
<path d="M5370 1129 c0 -5 5 -7 10 -4 6 3 10 8 10 11 0 2 -4 4 -10 4 -5 0 -10
-5 -10 -11z"/>
<path d="M4810 1089 c0 -5 5 -7 10 -4 6 3 10 8 10 11 0 2 -4 4 -10 4 -5 0 -10
-5 -10 -11z"/>
<path d="M5380 1080 c0 -5 5 -10 10 -10 6 0 10 5 10 10 0 6 -4 10 -10 10 -5 0
-10 -4 -10 -10z"/>
<path d="M4780 971 c0 -5 9 -7 20 -4 11 3 20 7 20 9 0 2 -9 4 -20 4 -11 0 -20
-4 -20 -9z"/>
<path d="M5737 957 c4 -6 0 -8 -10 -4 -31 12 -39 -17 -17 -64 11 -24 20 -38
20 -31 0 7 10 16 23 21 26 10 36 64 15 78 -20 12 -39 12 -31 0z"/>
<path d="M6800 869 c0 -11 4 -18 10 -14 5 3 7 12 3 20 -7 21 -13 19 -13 -6z"/>
<path d="M6906 847 c3 -10 9 -15 12 -12 3 3 0 11 -7 18 -10 9 -11 8 -5 -6z"/>
<path d="M4790 755 c-8 -9 -8 -15 -2 -15 12 0 26 19 19 26 -2 2 -10 -2 -17
-11z"/>
<path d="M4880 750 c0 -5 5 -10 11 -10 5 0 7 5 4 10 -3 6 -8 10 -11 10 -2 0
-4 -4 -4 -10z"/>
<path d="M4737 735 c3 -8 9 -12 14 -9 12 7 11 11 -5 17 -10 4 -13 1 -9 -8z"/>
<path d="M4430 665 c-13 -14 -21 -28 -17 -31 6 -6 97 42 97 51 0 3 -13 5 -28
5 -17 0 -38 -10 -52 -25z"/>
<path d="M4224 668 c-3 -5 11 -8 31 -8 21 0 34 4 30 10 -7 11 -54 9 -61 -2z"/>
<path d="M4368 523 c7 -3 16 -2 19 1 4 3 -2 6 -13 5 -11 0 -14 -3 -6 -6z"/>
<path d="M4148 493 c7 -3 16 -2 19 1 4 3 -2 6 -13 5 -11 0 -14 -3 -6 -6z"/>
<path d="M4900 470 c-9 -6 -10 -10 -3 -10 6 0 15 5 18 10 8 12 4 12 -15 0z"/>
<path d="M5237 351 c-38 -6 -51 -23 -22 -29 26 -6 62 6 69 23 3 8 2 14 -2 14
-4 -1 -24 -5 -45 -8z"/>
</g>
</svg>
