<?xml version="1.0" standalone="no"?>
<!DOCTYPE svg PUBLIC "-//W3C//DTD SVG 20010904//EN"
 "http://www.w3.org/TR/2001/REC-SVG-20010904/DTD/svg10.dtd">
<svg version="1.0" xmlns="http://www.w3.org/2000/svg"
 width="880.000000pt" height="880.000000pt" viewBox="0 0 880.000000 880.000000"
 preserveAspectRatio="xMidYMid meet">

<g transform="translate(0.000000,880.000000) scale(0.100000,-0.100000)"
fill="#000000" stroke="none">
<path d="M5750 7245 c-306 -63 -552 -303 -595 -583 -4 -24 -10 -42 -13 -40 -4
2 -29 15 -57 29 -162 86 -434 182 -630 222 -225 48 -367 60 -610 54 -121 -3
-229 -7 -240 -10 -11 -3 -45 -8 -75 -12 -205 -26 -532 -123 -726 -214 -541
-256 -966 -669 -1233 -1197 -60 -120 -78 -163 -131 -309 -207 -579 -194 -1240
37 -1825 78 -197 194 -409 312 -567 345 -466 807 -799 1337 -964 262 -81 480
-113 774 -113 610 0 1129 178 1616 555 116 89 303 271 389 379 l60 74 2 -85
c4 -144 23 -373 34 -414 6 -21 24 -52 41 -68 26 -26 29 -35 23 -66 -11 -59
-21 -68 -107 -101 -134 -50 -178 -72 -207 -106 -73 -83 -33 -215 83 -277 37
-20 54 -22 196 -21 119 1 189 7 300 27 l145 26 29 -31 c75 -76 167 -94 375
-73 192 20 304 40 355 65 88 43 119 148 76 265 -12 33 -33 91 -46 129 l-25 69
45 46 c67 68 98 177 126 441 50 476 35 1313 -30 1669 -6 34 -4 50 10 75 28 48
32 85 20 182 -48 395 -334 911 -707 1277 -138 136 -338 265 -389 253 l-24 -6
30 56 c16 31 30 62 30 68 0 6 18 22 40 36 22 14 40 28 40 31 0 4 6 9 14 12 9
4 45 -26 98 -80 139 -142 299 -237 494 -290 84 -22 120 -27 239 -27 117 -1
140 1 142 14 2 9 -13 24 -36 37 -99 57 -192 167 -347 413 -183 292 -302 423
-431 475 -57 23 -59 26 -103 113 -25 48 -62 111 -83 140 -149 201 -412 299
-667 247z m250 -39 c262 -48 463 -260 525 -556 19 -90 19 -141 0 -215 -23 -87
-48 -134 -102 -189 l-48 -48 -3 42 c-3 33 1 47 18 63 37 33 53 86 53 169 1 68
-3 82 -29 125 -38 62 -85 93 -138 93 -72 0 -116 -51 -116 -133 0 -42 -2 -45
-31 -51 -48 -9 -210 11 -295 38 -44 14 -106 41 -138 61 -37 22 -63 32 -69 26
-5 -5 -13 -29 -18 -54 -8 -47 -31 -97 -92 -207 -40 -73 -67 -162 -68 -230 -1
-87 -9 -89 -67 -24 -60 67 -142 226 -168 324 -25 94 -23 228 5 309 80 232 317
423 570 460 83 13 128 12 211 -3z m-1802 -332 c39 -6 42 -9 42 -38 0 -44 -44
-129 -86 -165 -18 -17 -53 -35 -76 -41 -95 -24 -134 -45 -200 -107 -37 -34
-69 -63 -71 -63 -2 0 -28 -5 -57 -10 -104 -20 -282 19 -342 75 -32 29 -45 71
-31 94 5 9 39 39 74 68 71 57 91 92 83 140 -6 39 -4 39 136 53 98 9 452 5 528
-6z m-710 -70 c-3 -35 -10 -44 -65 -84 -33 -25 -68 -57 -77 -72 -22 -36 -20
-86 4 -126 41 -67 230 -129 366 -119 93 7 129 23 193 90 57 59 65 64 177 96
59 17 78 28 113 66 51 55 80 117 81 168 0 45 -5 44 150 12 229 -49 421 -115
616 -213 l101 -51 12 -73 c7 -40 27 -113 46 -163 25 -66 31 -91 22 -97 -7 -4
-52 -17 -102 -29 -103 -25 -254 -29 -521 -15 -192 11 -228 5 -429 -64 -250
-86 -307 -114 -324 -162 -13 -36 14 -86 59 -112 31 -18 59 -21 245 -27 241 -7
265 -12 265 -63 0 -32 -4 -36 -82 -76 -114 -59 -192 -113 -267 -184 -125 -121
-133 -176 -48 -347 32 -64 59 -128 60 -144 2 -27 -2 -30 -75 -56 -203 -73
-255 -130 -265 -293 -8 -126 22 -168 137 -192 92 -19 139 -7 348 85 175 78
334 77 410 -2 18 -19 54 -82 82 -147 64 -145 121 -245 178 -310 24 -28 60 -86
78 -128 74 -169 126 -207 289 -207 88 0 105 3 142 24 43 25 83 85 83 125 0 33
75 167 124 222 57 64 90 84 162 93 l52 7 4 -67 c3 -59 8 -73 32 -98 16 -17 42
-32 57 -36 16 -3 43 -8 59 -11 41 -8 38 -28 -9 -92 -41 -54 -45 -67 -61 -219
-20 -181 -80 -311 -180 -387 -28 -21 -57 -48 -65 -60 -25 -34 -18 -90 19 -163
47 -93 66 -162 73 -264 7 -111 -6 -153 -55 -178 -21 -10 -84 -60 -142 -111
-150 -131 -141 -129 -302 -100 -78 14 -172 24 -228 24 -124 0 -163 -19 -215
-104 -40 -66 -82 -103 -197 -174 -84 -51 -122 -95 -183 -212 -29 -56 -37 -82
-37 -126 l-1 -56 -61 -11 c-146 -25 -253 -33 -431 -33 -104 -1 -209 2 -231 6
-39 7 -43 10 -53 50 -17 67 -42 90 -175 155 -131 64 -133 66 -256 218 -99 123
-166 148 -270 99 -66 -31 -91 -32 -149 -6 -81 37 -183 16 -279 -56 l-32 -25
-63 44 c-165 119 -364 307 -492 467 -100 124 -285 412 -285 443 0 4 10 7 23 7
12 0 42 9 66 20 87 40 112 67 342 371 69 91 101 161 107 234 6 83 -17 123 -87
154 -28 11 -53 21 -58 21 -4 0 -20 11 -35 25 -41 38 -59 115 -68 298 -8 165
-19 216 -60 282 -50 81 -1 333 93 473 12 18 50 51 84 72 71 46 94 79 153 226
68 170 82 177 218 115 103 -48 162 -58 229 -42 67 17 117 53 149 106 21 36 29
70 40 161 10 84 24 147 54 232 144 411 135 372 135 522 -1 121 -3 142 -27 207
l-26 72 76 26 c43 15 93 33 112 40 29 10 250 65 315 78 29 5 37 -6 33 -49z
m3181 -141 c86 -64 155 -152 317 -399 136 -209 225 -325 290 -383 l47 -41 -50
0 c-110 0 -283 43 -408 100 -119 55 -291 191 -356 281 -18 26 -18 27 10 80 47
87 64 169 57 274 -4 50 -9 103 -13 118 l-6 28 39 -16 c21 -8 54 -28 73 -42z
m-3727 -56 c18 -56 23 -96 23 -177 0 -115 -18 -190 -98 -400 -62 -165 -85
-250 -95 -359 -12 -119 -32 -158 -97 -197 -75 -44 -155 -36 -290 28 -129 61
-174 32 -249 -160 -35 -91 -57 -131 -86 -161 -22 -23 -46 -41 -53 -41 -21 0
-81 -61 -110 -111 -40 -68 -76 -173 -93 -273 -17 -99 -12 -166 15 -206 37 -52
52 -123 61 -290 14 -249 36 -301 141 -342 34 -13 72 -33 85 -45 49 -45 22
-154 -69 -281 -111 -154 -229 -303 -260 -326 -50 -37 -113 -66 -146 -66 -28 0
-31 5 -75 109 -87 206 -144 406 -183 636 -14 89 -18 164 -18 385 1 295 11 387
70 620 141 557 482 1075 925 1406 47 35 90 67 95 71 90 71 457 269 476 257 5
-3 19 -37 31 -77z m3385 23 c47 -28 73 -86 72 -162 0 -88 -17 -133 -49 -133
-24 0 -25 -2 -22 -61 4 -76 -19 -158 -64 -225 -37 -56 -40 -69 -21 -88 16 -17
-34 -59 -131 -109 l-73 -37 -17 23 c-15 19 -21 21 -52 12 -51 -15 -178 -13
-232 4 -65 19 -124 56 -176 107 l-44 44 33 8 c75 19 127 87 57 73 -18 -4 -50
-18 -72 -32 -25 -17 -41 -22 -45 -15 -11 18 7 181 26 230 10 25 39 83 64 129
26 46 52 103 59 128 8 26 18 43 24 40 185 -85 408 -127 516 -97 24 7 25 10 22
69 -3 55 -1 64 22 87 30 30 60 32 103 5z m-1007 -505 c30 -42 70 -85 89 -97
19 -12 66 -50 105 -85 114 -102 270 -165 366 -148 35 6 38 0 11 -23 -18 -16
-18 -22 -6 -111 8 -52 12 -98 9 -102 -7 -11 -176 -130 -478 -334 -237 -161
-290 -201 -355 -272 -42 -46 -80 -83 -85 -83 -5 0 -31 14 -57 30 -60 39 -105
53 -130 39 -27 -14 -24 -51 6 -79 14 -13 25 -28 25 -33 0 -6 -3 -8 -6 -4 -9 9
-94 -20 -116 -40 -28 -25 -58 -91 -58 -130 0 -38 -1 -39 -43 -15 -25 13 -55
17 -142 16 -120 0 -146 -7 -287 -76 -111 -54 -179 -71 -254 -65 -115 9 -147
55 -126 183 19 115 71 167 216 216 95 31 126 55 126 95 0 15 -27 84 -60 152
-79 163 -79 199 2 287 63 68 187 158 281 202 89 43 111 68 111 127 0 77 -32
87 -296 94 -199 6 -219 8 -245 27 -79 59 -31 94 269 196 l183 63 140 -2 c77 0
232 -2 345 -4 193 -2 210 -1 295 23 50 14 95 26 100 27 6 0 35 -33 65 -74z
m1089 -196 c93 -52 210 -150 329 -274 346 -360 611 -873 629 -1217 6 -105 5
-107 -20 -130 -29 -27 -187 -92 -318 -132 -107 -33 -237 -61 -366 -81 -259
-38 -697 -45 -749 -10 -50 33 -50 41 -10 388 20 177 40 332 43 344 3 13 35 46
72 75 143 112 370 309 441 384 115 120 169 236 156 332 -13 98 -99 198 -190
223 -100 27 -206 -16 -375 -153 -61 -50 -113 -89 -115 -87 -2 2 -5 34 -7 72
l-4 67 82 29 c101 35 216 99 280 157 26 24 52 43 57 44 5 0 34 -14 65 -31z
m63 -164 c47 -31 94 -102 103 -155 19 -112 -85 -271 -289 -442 -22 -18 -62
-52 -89 -76 -242 -213 -543 -408 -722 -467 -124 -41 -253 -49 -326 -20 -44 17
-135 188 -124 232 14 58 171 192 415 354 313 209 513 351 640 455 98 80 170
126 230 145 43 14 120 2 162 -26z m-1569 -905 c66 -36 74 -43 85 -82 12 -44
54 -121 94 -170 l21 -27 -24 -21 c-54 -47 -130 -90 -187 -106 -59 -16 -61 -16
-106 6 -36 17 -52 33 -71 70 -69 135 -25 238 109 254 81 11 89 27 36 76 -24
22 -40 40 -36 40 4 0 40 -18 79 -40z m997 -64 c0 -13 -61 -511 -63 -513 -2 -1
-33 -7 -71 -13 -89 -14 -111 -27 -177 -97 -61 -67 -109 -150 -135 -238 -10
-33 -29 -72 -42 -86 -70 -78 -279 -58 -342 31 -12 17 -38 68 -56 113 -19 44
-49 97 -68 117 -46 48 -86 110 -135 207 -22 46 -41 84 -41 85 0 2 30 3 68 3
56 1 78 6 136 35 38 19 91 54 117 78 l48 43 62 -12 c146 -29 402 56 619 205
60 42 80 52 80 42z m1447 -642 c7 -43 20 -160 30 -259 22 -233 25 -997 5
-1210 -18 -184 -47 -377 -67 -443 -43 -142 -202 -217 -377 -178 -102 23 -132
43 -147 100 -35 141 -59 523 -68 1081 -4 273 -10 412 -17 417 -29 19 -35 -14
-36 -210 -1 -338 -28 -831 -55 -1027 -27 -189 -47 -228 -144 -274 -51 -24 -67
-26 -181 -26 -109 0 -130 3 -165 21 -53 29 -71 50 -85 103 -20 76 -28 301 -24
661 4 343 6 414 24 835 6 121 10 232 10 246 l0 26 228 6 c243 6 398 23 582 63
126 28 314 88 400 127 30 14 59 24 65 23 5 -1 15 -38 22 -82z m-1352 -466 c-3
-117 -8 -226 -10 -243 -2 -16 -7 -169 -11 -339 l-7 -308 -59 -75 c-82 -102
-257 -282 -353 -362 -44 -36 -85 -70 -91 -76 -16 -15 -139 -100 -219 -151 -88
-57 -324 -173 -435 -215 -108 -40 -308 -99 -337 -99 -12 0 -27 9 -33 20 -14
26 4 76 66 180 50 86 79 113 184 173 67 38 141 110 169 164 12 25 33 46 55 57
50 23 202 21 329 -5 168 -34 203 -23 342 107 33 31 90 75 126 99 85 55 94 78
86 224 -6 116 -25 188 -77 292 -42 85 -38 104 39 163 115 89 180 239 196 451
5 69 29 155 43 155 2 0 1 -96 -3 -212z m705 -1046 c0 -84 26 -367 41 -447 12
-66 22 -89 51 -122 23 -25 18 -71 -10 -96 -13 -11 -180 -77 -197 -77 -4 0 -85
197 -85 208 0 5 14 15 31 22 46 19 85 81 103 160 18 79 46 310 46 383 0 30 4
46 10 42 6 -3 10 -36 10 -73z m-3647 -383 c36 -19 65 -49 144 -147 81 -102
129 -138 258 -194 81 -36 125 -77 125 -119 0 -25 -25 -25 -174 6 -233 47 -440
117 -638 216 -97 49 -240 129 -257 145 -11 10 48 56 96 74 67 25 96 25 152 0
57 -26 104 -25 171 5 61 27 91 30 123 14z m3167 -181 c54 -10 154 -4 211 12
44 13 38 -17 -8 -36 -64 -27 -154 -36 -239 -24 -43 5 -79 12 -81 14 -2 2 -1
16 3 31 6 23 10 26 33 20 14 -4 50 -11 81 -17z m697 -53 c73 -19 143 -19 218
0 79 21 97 4 29 -27 -40 -19 -66 -23 -149 -23 -55 0 -116 3 -136 8 -32 6 -36
10 -31 32 2 14 6 25 8 25 2 0 29 -7 61 -15z"/>
<path d="M3382 5855 c-57 -25 -114 -77 -135 -123 -22 -51 -18 -101 13 -163 41
-80 22 -115 -98 -179 -73 -39 -92 -69 -92 -152 0 -34 -5 -83 -11 -108 -6 -25
-11 -73 -11 -108 -2 -80 21 -107 85 -103 9 0 53 34 95 74 71 66 86 75 157 96
98 28 147 53 174 87 17 22 20 35 15 83 -5 50 -2 63 26 116 109 203 102 184 97
256 -9 115 -56 185 -150 224 -45 19 -121 19 -165 0z m158 -46 c64 -28 106 -88
116 -167 7 -55 6 -58 -60 -185 -68 -130 -76 -159 -63 -210 11 -40 -32 -80
-108 -101 -117 -33 -146 -48 -221 -118 -94 -87 -109 -87 -108 2 2 123 16 255
30 277 8 13 36 34 63 47 66 34 111 74 128 113 15 37 10 68 -18 125 -44 87 -13
164 83 212 63 32 94 32 158 5z"/>
<path d="M3248 3835 c-56 -18 -100 -67 -127 -141 -28 -73 -54 -228 -49 -285
11 -115 110 -244 283 -369 116 -84 136 -116 181 -300 46 -190 90 -334 111
-370 20 -34 47 -43 95 -30 79 22 155 102 177 185 12 45 41 76 118 124 53 33
94 79 115 128 6 16 12 85 12 163 2 133 2 136 40 225 81 190 79 186 80 275 1
71 -3 93 -23 130 -24 47 -108 140 -126 140 -5 0 -41 17 -80 37 -64 33 -78 37
-172 41 -84 3 -114 0 -176 -18 l-74 -22 -44 21 c-24 11 -66 33 -93 47 -60 34
-174 42 -248 19z m260 -73 c91 -56 108 -58 216 -32 139 33 224 26 330 -29 138
-71 189 -141 189 -260 0 -57 -8 -85 -59 -211 l-59 -145 0 -135 c-1 -169 -13
-195 -121 -270 -84 -58 -110 -87 -124 -140 -22 -80 -104 -159 -167 -160 -31 0
-32 1 -57 83 -33 111 -60 211 -90 336 -38 154 -76 206 -229 310 -86 58 -121
95 -176 179 -51 81 -58 127 -37 243 21 112 50 192 86 232 24 27 37 32 87 37
88 8 157 -4 211 -38z"/>
<path d="M4745 3693 c-30 -8 -84 -52 -106 -87 -18 -28 -19 -43 -13 -142 l7
-111 -43 -134 c-24 -74 -51 -152 -61 -174 -34 -73 -22 -132 31 -160 64 -33
171 -8 223 54 36 44 48 89 54 211 l5 105 61 109 c54 98 61 116 60 163 -3 123
-98 195 -218 166z m138 -72 c26 -25 31 -39 34 -88 4 -52 1 -63 -31 -113 -75
-117 -79 -128 -87 -247 -10 -146 -21 -184 -64 -221 -63 -56 -175 -52 -183 5
-2 11 10 56 26 99 79 215 94 272 92 357 -6 167 -6 164 20 193 58 62 140 68
193 15z"/>
<path d="M5963 6334 c-18 -20 -30 -25 -60 -22 -22 2 -37 -1 -36 -7 3 -13 38
-18 69 -11 23 6 64 43 64 58 0 15 -15 8 -37 -18z"/>
<path d="M6029 6297 c-19 -12 -35 -30 -37 -40 -3 -14 2 -16 30 -10 40 8 94 39
102 58 9 24 -56 18 -95 -8z"/>
<path d="M5627 6175 c-14 -20 -27 -25 -63 -25 -28 0 -43 -4 -39 -10 3 -5 24
-10 46 -10 29 0 47 7 64 25 24 23 33 45 18 45 -5 0 -16 -12 -26 -25z"/>
</g>
</svg>
