<svg version="1.1" id="Layer_1" xmlns="http://www.w3.org/2000/svg" xmlns:xlink="http://www.w3.org/1999/xlink" x="0px" y="0px"
	 width="100%" viewBox="0 0 800 800" enable-background="new 0 0 800 800" xml:space="preserve">
<path fill="#000000" opacity="1.000000" stroke="none" 
	d="
M399.594482,338.416534 
	C399.108643,337.927094 398.866974,337.696869 398.640167,337.452850 
	C393.369293,331.781616 390.396667,332.018860 385.843170,338.522430 
	C383.054077,342.506012 381.979309,346.779144 382.748962,351.738983 
	C383.624603,357.381989 383.854492,363.125183 383.675629,368.912781 
	C381.067474,364.323303 380.926392,359.285370 380.661438,354.271484 
	C380.083496,343.334961 377.826630,332.904938 371.985291,323.408844 
	C369.736328,319.752747 367.521851,318.953766 363.435181,320.912323 
	C354.308990,325.286224 344.727509,325.956757 334.674835,323.114471 
	C339.134064,317.333130 349.087067,314.760193 364.955872,315.056152 
	C360.473907,309.976105 355.083252,306.924133 349.111359,304.715637 
	C346.521576,303.757874 345.562622,305.799683 344.257294,307.220215 
	C337.135925,314.969910 328.465027,319.607697 316.750580,320.894714 
	C322.099274,311.567047 329.662231,306.737091 339.405579,303.212006 
	C334.420288,301.587769 330.487427,302.050903 326.623993,303.553528 
	C318.131836,306.856476 309.460022,307.226471 300.613342,305.363739 
	C299.126495,305.050659 297.708923,304.675018 296.013550,302.995392 
	C302.263153,298.836914 308.928406,297.831024 316.054535,297.551025 
	C323.201447,297.270203 329.919250,301.308319 337.501862,299.174255 
	C332.042572,294.595306 326.809967,290.052582 323.640320,282.853180 
	C328.443726,282.623993 332.079681,284.509766 335.570435,286.438141 
	C340.275269,289.037170 344.680176,292.340820 347.449738,296.933105 
	C350.580078,302.123596 354.990143,305.147552 360.673340,307.192230 
	C359.247650,301.528778 357.858398,295.944336 358.088531,290.152344 
	C360.725677,289.422485 361.661530,291.272552 362.746277,292.606567 
	C368.353333,299.501923 371.859772,307.283417 372.344482,316.260345 
	C372.502350,319.183899 373.380615,321.770111 375.744537,324.404144 
	C377.276733,319.148834 377.284271,313.741852 380.269836,309.342834 
	C382.828278,309.975800 382.257172,312.666321 383.652740,313.944275 
	C385.505737,310.823212 384.400024,308.471161 382.152130,305.944275 
	C375.569427,298.544464 372.797760,289.587860 372.243652,279.844818 
	C372.186188,278.834137 372.225616,277.825928 373.711884,276.995850 
	C382.016510,283.671692 384.805542,293.191040 386.792908,302.957581 
	C389.145386,297.700500 391.329956,292.147919 394.079193,286.890686 
	C396.212189,282.811890 395.769379,280.744171 391.061584,279.363617 
	C382.838226,276.952148 376.200256,272.030060 371.079468,265.121552 
	C370.300140,264.070190 369.233734,263.150513 369.508209,261.015442 
	C380.666840,262.242401 389.192902,267.965668 396.708588,276.533051 
	C398.508240,272.031616 398.779236,267.865570 398.606995,263.622223 
	C398.492920,260.811890 396.048096,260.378937 394.222290,259.405426 
	C385.215698,254.603088 378.837921,247.528946 374.468994,236.866837 
	C383.986176,239.203827 389.978546,244.672195 395.551392,250.951111 
	C396.542358,247.712570 396.591339,247.679932 394.388184,244.373245 
	C388.206970,235.096024 386.485992,224.978729 388.318970,212.698349 
	C397.079437,222.819611 399.418152,233.556793 398.872986,245.669357 
	C400.056030,242.417114 400.911133,239.405975 402.233734,236.616440 
	C403.553711,233.832367 404.566467,230.730331 408.014038,228.463562 
	C410.228455,233.640167 409.569061,238.751617 408.928589,243.648087 
	C408.349792,248.073257 406.926453,252.468445 404.530884,256.310425 
	C401.592957,261.022308 400.515961,266.044556 400.997955,272.213257 
	C404.828339,266.506042 409.157379,262.000702 414.640900,258.737732 
	C417.586243,256.985107 415.784698,254.488007 415.399231,252.453033 
	C413.741058,243.699661 414.424316,235.228485 417.839508,227.002396 
	C418.395233,225.663818 418.806488,224.122437 420.429779,223.540878 
	C423.978333,228.651581 424.230286,234.044846 421.752655,251.437683 
	C427.657837,250.171722 430.378326,247.117813 430.873596,241.329193 
	C431.771637,230.833328 434.601746,221.148697 443.422180,212.499161 
	C445.386353,223.893631 441.904480,232.859055 436.463074,242.499878 
	C441.395966,240.078613 445.449585,238.170776 449.420074,236.103333 
	C451.233704,235.158997 451.377747,233.178146 451.843048,231.390152 
	C454.039246,222.950821 458.324219,215.746109 464.848389,209.919815 
	C465.712677,209.147995 466.632721,208.417114 467.613251,207.805618 
	C468.138428,207.478104 468.847656,207.445663 470.117004,207.109955 
	C469.883331,217.113708 464.689758,224.487381 458.615112,232.458847 
	C474.626862,228.995605 489.288147,219.525009 505.864929,228.145309 
	C502.813080,231.712036 498.670441,231.972900 495.004181,232.887360 
	C489.474365,234.266647 483.623230,234.578293 478.221191,232.882523 
	C471.175232,230.670731 465.303864,233.049911 458.805115,235.856339 
	C470.186188,237.891418 479.784576,242.933029 484.125275,249.367249 
	C478.172638,250.780060 472.786957,249.297333 467.533691,247.695953 
	C463.232880,246.384918 459.041077,244.450211 455.677856,241.422897 
	C452.613495,238.664581 449.811676,238.263031 446.333557,240.420425 
	C443.380951,242.251846 440.235443,243.772217 436.291077,245.909286 
	C447.612427,249.123154 457.192688,253.491150 463.908264,263.940460 
	C454.296082,263.825073 447.014862,260.338867 440.210480,255.495010 
	C439.669006,255.109543 439.229187,254.564819 438.659485,254.238281 
	C436.124573,252.785431 434.663147,248.103531 431.844940,249.275116 
	C427.591858,251.043259 423.207916,253.655075 421.416534,258.677032 
	C420.696808,260.694733 419.703339,262.614838 418.493835,265.349487 
	C427.580200,265.718353 436.438110,265.551941 444.453766,271.643585 
	C436.300751,275.425293 428.240601,276.072021 420.728577,273.578918 
	C414.610779,271.548645 411.255127,274.062866 406.546844,276.839142 
	C397.606903,282.110687 394.977692,290.804382 391.713654,299.636536 
	C399.158936,293.720612 407.259247,289.721191 417.038055,289.287018 
	C413.849762,294.802338 409.509125,299.078217 404.080231,302.205200 
	C400.465515,304.287262 396.605835,306.060669 392.506012,306.774841 
	C388.894470,307.403992 388.031677,309.521484 386.903717,312.631653 
	C384.253601,319.938812 386.288574,327.584808 384.419434,335.305695 
	C389.430115,332.488556 393.053223,329.331451 394.706177,323.601654 
	C397.461273,314.051178 403.455566,306.696289 413.220184,300.815613 
	C412.163574,311.477509 407.320526,318.889282 401.320862,325.814880 
	C409.119843,326.203979 412.957977,324.613190 417.417786,319.254974 
	C422.884705,312.686859 429.570557,307.927002 437.873901,305.610809 
	C439.108826,305.266327 440.346771,304.435760 442.130737,305.768433 
	C438.046906,314.342224 430.847198,319.615936 422.206177,324.097809 
	C426.406403,324.987762 429.864075,323.822174 433.342590,323.218781 
	C442.539368,321.623596 451.237640,323.060272 459.509979,327.293701 
	C460.235168,327.664795 461.029236,328.030853 461.065094,329.419586 
	C448.002594,335.825500 435.457947,329.463470 422.438873,327.221252 
	C429.777466,334.129730 436.665070,340.819397 439.369507,351.733856 
	C431.352539,349.227386 426.079712,344.650330 421.596619,339.068237 
	C419.837372,336.877777 418.135010,334.459259 417.159180,331.861877 
	C415.397461,327.172424 412.236847,326.607025 408.034210,327.730347 
	C405.315247,328.457092 402.558746,329.043365 398.188324,330.079010 
	C409.263641,334.372833 417.843170,339.767242 422.825256,349.571259 
	C413.669647,348.995728 406.185516,345.054108 399.594482,338.416534 
M363.743958,298.106201 
	C363.007996,297.369019 362.753693,296.003632 361.118378,296.177155 
	C361.580536,303.543854 364.670898,309.693024 369.573914,316.315948 
	C369.469727,309.097046 366.757172,303.894104 363.743958,298.106201 
M379.348358,320.105621 
	C378.458679,329.513550 378.783722,332.712860 381.075134,337.102386 
	C383.376465,328.971405 383.199097,322.433899 380.489075,316.042053 
	C380.141083,317.175079 379.802094,318.278809 379.348358,320.105621 
M403.720520,252.039841 
	C406.942902,243.475540 407.366302,240.159851 405.735046,235.413986 
	C402.038971,242.074249 400.993683,249.110107 401.039215,256.584717 
	C402.551910,255.551376 402.784149,253.990662 403.720520,252.039841 
M382.588837,295.872803 
	C380.987122,291.432251 379.291138,287.044312 375.228760,282.465546 
	C375.977386,290.756866 378.437561,296.889282 383.309113,302.744812 
	C383.912476,300.064728 383.147827,298.364044 382.588837,295.872803 
M394.141022,227.483414 
	C393.106812,225.239456 392.072601,222.995499 390.470001,219.518280 
	C389.653290,228.650253 391.977509,235.305344 396.793091,241.300766 
	C396.000092,236.942017 395.207123,232.583282 394.141022,227.483414 
M401.232971,321.637787 
	C406.567352,315.007629 408.307129,311.653259 408.602722,307.428528 
	C401.997467,313.103729 398.191833,319.115417 397.060303,326.142914 
	C398.522430,324.536194 399.628510,323.320740 401.232971,321.637787 
M491.337585,227.343109 
	C487.001160,227.337341 482.699799,227.490982 477.445618,230.410858 
	C485.720520,230.956345 492.504883,231.794769 500.454987,228.543259 
	C496.758087,228.006744 494.481140,227.676315 491.337585,227.343109 
M437.849609,234.239075 
	C440.254211,229.656357 440.904541,224.685349 441.536591,218.537354 
	C436.382782,225.729874 433.957489,232.600174 434.012970,241.358917 
	C435.502319,238.635925 436.520752,236.773926 437.849609,234.239075 
M396.997131,299.431305 
	C395.413300,300.837921 393.829468,302.244507 391.874786,303.980499 
	C400.034332,302.483215 407.965881,297.597229 410.441620,292.698608 
	C405.594696,293.839569 401.460083,296.177521 396.997131,299.431305 
M342.355194,295.038666 
	C338.707703,291.775940 335.111237,288.430542 329.908447,287.102539 
	C332.422241,292.822601 340.135986,298.612549 345.382599,298.690430 
	C344.426147,297.525848 343.610901,296.533203 342.355194,295.038666 
M319.728516,300.350800 
	C314.359924,300.313690 308.884155,299.494202 303.727295,302.430786 
	C309.561646,304.789307 318.858032,304.200439 323.991211,301.159790 
	C322.743683,300.886902 321.624329,300.642059 319.728516,300.350800 
M417.251404,242.426331 
	C417.235535,245.226852 417.079193,248.048798 418.245026,251.320953 
	C421.043976,243.812256 421.574158,237.010208 419.970520,230.070709 
	C417.707916,233.821091 417.216583,237.614365 417.251404,242.426331 
M333.211060,308.693359 
	C329.855957,310.681213 326.285431,312.420410 324.128571,316.271576 
	C330.315186,315.629181 337.061005,311.431885 341.618561,305.342957 
	C338.732452,306.450806 336.289581,307.388489 333.211060,308.693359 
M429.593781,312.103577 
	C425.976288,314.618713 422.089020,316.846100 419.059540,322.144379 
	C427.072388,319.169861 432.351715,314.890198 437.538208,308.378052 
	C434.363403,309.824890 432.281219,310.773804 429.593781,312.103577 
M435.758667,325.584442 
	C435.241425,325.736572 433.894409,325.685974 434.477814,326.300842 
	C437.453339,329.436798 448.922729,330.223907 453.474426,327.728729 
	C447.903473,325.299530 442.227997,324.843872 435.758667,325.584442 
M422.793213,268.263275 
	C420.775970,268.418457 418.649017,268.069183 416.270813,269.545685 
	C423.324005,272.772797 429.972809,271.885345 436.626801,271.060211 
	C432.536346,268.700409 428.159851,268.147034 422.793213,268.263275 
M357.747406,320.637085 
	C359.079285,320.239838 360.618835,320.157684 361.270203,318.220490 
	C354.248199,316.674622 347.945221,318.339783 340.808167,321.315247 
	C346.974030,322.688324 351.998535,321.931396 357.747406,320.637085 
M463.893555,214.868210 
	C459.704834,218.930969 456.856140,223.731430 455.918762,229.606171 
	C461.268860,225.450684 464.698517,220.108231 466.529419,212.711273 
	C465.329102,213.669022 464.828003,214.068863 463.893555,214.868210 
M385.432861,274.037048 
	C387.467590,274.784821 389.177002,276.559448 392.543152,276.305237 
	C387.381500,270.556396 381.943878,266.947144 374.863892,264.849823 
	C377.523956,269.128204 381.091217,271.490204 385.432861,274.037048 
M392.654083,251.691895 
	C389.385315,248.429077 386.674286,244.409698 380.655121,242.908188 
	C384.510620,249.322983 388.779999,253.540970 395.223389,255.438934 
	C394.504913,254.361664 393.786469,253.284409 392.654083,251.691895 
M412.119019,340.359406 
	C408.905121,338.569000 406.249786,335.405518 400.662262,335.506073 
	C405.950348,341.353333 411.155060,344.478394 418.662292,346.469147 
	C416.022614,343.966736 414.347198,342.378479 412.119019,340.359406 
M421.798859,331.543640 
	C421.242371,331.383484 420.230072,330.496582 420.193115,331.282898 
	C420.028412,334.791901 429.168030,343.810760 433.199829,344.382141 
	C430.583252,339.060974 427.932068,336.028412 421.798859,331.543640 
M468.348572,241.220627 
	C465.210419,240.111649 462.105011,238.754974 458.425537,239.747406 
	C464.445953,244.598358 471.667023,246.990601 475.323059,245.275238 
	C473.674255,243.164246 471.246124,242.494370 468.348572,241.220627 
M416.718811,261.289490 
	C410.117493,264.148926 405.951660,269.278687 403.102142,275.638336 
	C408.948273,272.278809 413.684784,267.865356 416.718811,261.289490 
M440.939728,251.819534 
	C444.761200,256.363861 449.627197,258.825897 455.582214,259.141479 
	C451.438477,255.310745 447.533386,251.063309 440.939728,251.819534 
z"/>
<path fill="#000000" opacity="1.000000" stroke="none" 
	d="
M540.764282,441.316742 
	C548.685303,458.451416 556.443176,475.246521 564.297546,492.250671 
	C553.224121,494.738586 551.770752,494.085938 547.642151,485.393097 
	C545.358826,480.585510 543.052185,475.785645 540.924377,470.908844 
	C539.785400,468.298431 538.112000,467.087341 535.198792,467.110138 
	C523.384827,467.202576 511.568939,467.227814 499.755493,467.108551 
	C496.718353,467.077942 495.243256,468.524597 494.186646,471.076538 
	C491.642303,477.221466 488.917450,483.292236 486.413818,489.453217 
	C485.001007,492.929840 482.831970,494.000732 478.992310,492.235748 
	C479.883179,486.105469 483.076019,480.789246 485.392151,475.221680 
	C494.712921,452.816254 504.251953,430.501587 513.727112,408.160522 
	C514.808899,405.609802 515.439636,402.806305 519.319580,402.823517 
	C523.079773,402.840210 523.941406,405.480774 525.134583,408.019440 
	C530.296509,419.002319 535.446655,429.990753 540.764282,441.316742 
M532.114807,452.273834 
	C527.145081,441.500366 522.175354,430.726898 516.608582,418.659210 
	C510.502106,433.014252 504.984436,445.985016 499.277649,459.400452 
	C511.807648,459.400452 523.272095,459.400452 535.353699,459.400452 
	C534.192261,456.816589 533.320496,454.877197 532.114807,452.273834 
z"/>
<path fill="#000000" opacity="1.000000" stroke="none" 
	d="
M448.065491,452.166077 
	C454.263641,436.860291 460.369873,421.929474 466.296448,406.927673 
	C468.008789,402.593201 470.727722,402.218353 474.746643,403.857147 
	C474.066284,408.358856 471.901428,412.139191 470.312134,416.085052 
	C460.555542,440.308441 450.679138,464.483551 440.906250,488.700409 
	C439.844452,491.331451 438.832581,493.310150 435.359955,493.283325 
	C431.944550,493.256866 430.319916,491.811005 429.080353,488.830566 
	C417.709686,461.491333 406.231689,434.196716 394.805389,406.880585 
	C394.438019,406.002289 394.289917,405.032318 394.050201,404.144470 
	C403.123962,400.524109 407.936829,402.581360 411.336670,410.866180 
	C419.729706,431.318665 428.268616,451.711273 436.774384,472.117340 
	C437.138580,472.991058 437.757660,473.758514 438.635193,475.191437 
	C441.893097,467.221558 444.899139,459.867798 448.065491,452.166077 
z"/>
<path fill="#000000" opacity="1.000000" stroke="none" 
	d="
M245.436737,422.442902 
	C242.986008,416.086823 239.816864,410.412415 238.089615,403.882660 
	C242.349442,402.132935 246.507919,402.810577 250.531876,403.193207 
	C253.340683,403.460266 253.554581,406.466614 254.415649,408.525665 
	C263.076263,429.235931 271.665436,449.976044 280.307251,470.694183 
	C280.865997,472.033691 281.089905,473.609619 282.965576,474.881470 
	C286.881622,465.220398 290.740204,455.716858 294.586456,446.208313 
	C299.824860,433.257935 305.126862,420.332520 310.245941,407.335114 
	C311.960999,402.980652 314.532959,401.885498 319.115845,404.125366 
	C317.636505,407.979156 316.280975,411.675110 314.807129,415.323242 
	C304.961639,439.693420 295.078278,464.048309 285.245758,488.423706 
	C284.124023,491.204529 282.911041,493.305054 279.265228,493.290619 
	C275.748962,493.276672 274.285339,491.523804 273.090179,488.645660 
	C263.967377,466.676697 254.763245,444.741547 245.436737,422.442902 
z"/>
<path fill="#000000" opacity="1.000000" stroke="none" 
	d="
M362.917114,445.000000 
	C362.904144,459.480652 362.741028,473.463654 362.960114,487.440704 
	C363.041901,492.658936 360.461273,493.300537 356.148071,493.294586 
	C351.753967,493.288544 349.828522,491.971252 349.853149,487.297882 
	C349.990875,461.168335 350.040649,435.036743 349.831665,408.908173 
	C349.786591,403.274597 352.691711,402.984436 357.032074,402.818634 
	C361.842560,402.634888 363.050690,404.722565 362.990082,409.050262 
	C362.824646,420.864868 362.924194,432.683167 362.917114,445.000000 
z"/>
<path fill="#000000" opacity="1.000000" stroke="none" 
	d="
M451.019348,540.274902 
	C450.806854,556.532532 436.067780,560.324585 427.601898,555.033264 
	C421.582886,551.271301 418.997589,543.714844 421.272644,536.165771 
	C423.131836,529.996460 429.483154,525.537415 436.080048,525.770020 
	C443.337524,526.025818 448.692780,530.560547 450.454712,537.938416 
	C450.608978,538.584351 450.782043,539.225830 451.019348,540.274902 
M426.379883,539.051697 
	C426.221497,546.732544 428.360229,550.598999 433.367493,551.684448 
	C438.602112,552.819031 443.008362,550.411682 444.427368,545.641724 
	C446.188416,539.721924 443.691406,533.187927 439.057098,531.589294 
	C433.741669,529.755737 429.262482,532.134583 426.379883,539.051697 
z"/>
<path fill="#000000" opacity="1.000000" stroke="none" 
	d="
M346.694550,544.980103 
	C346.693817,538.866699 346.693817,533.248352 346.693817,526.327087 
	C354.243225,531.421570 358.036011,538.617920 364.717072,544.071167 
	C364.717072,538.641846 364.709839,533.895142 364.721313,529.148376 
	C364.724915,527.661316 365.225098,526.514160 366.942932,526.447937 
	C368.598358,526.383972 370.096283,526.853943 370.111237,528.780090 
	C370.181519,537.837769 370.142517,546.896301 370.142517,557.358948 
	C362.940338,551.896729 359.073456,544.951172 352.275726,539.507385 
	C352.275726,544.754822 352.294769,549.013611 352.267181,553.272095 
	C352.254608,555.216980 351.962372,557.093140 349.377380,556.970825 
	C347.192078,556.867493 346.774139,555.251648 346.753632,553.448486 
	C346.723358,550.790833 346.713715,548.132935 346.694550,544.980103 
z"/>
<path fill="#000000" opacity="1.000000" stroke="none" 
	d="
M490.764099,552.702026 
	C490.757599,545.098633 490.876007,537.958374 490.715393,530.824280 
	C490.636414,527.315796 492.266846,525.913330 495.476440,526.110962 
	C498.112732,526.273315 500.785675,526.504578 503.345642,527.112549 
	C510.047394,528.704346 513.951050,536.549805 505.801422,544.752625 
	C506.569794,548.933228 510.762482,551.731445 510.927185,556.281921 
	C507.985229,557.907776 506.040802,556.951233 504.616791,554.396973 
	C503.485687,552.368103 502.427521,550.297729 501.265320,548.287292 
	C500.576294,547.095337 499.630249,546.110718 498.071808,546.394958 
	C496.291412,546.719666 496.396851,548.201782 496.339142,549.519775 
	C496.288330,550.679993 496.326691,551.843872 496.285217,553.004761 
	C496.219360,554.847656 496.325104,556.923584 493.675537,556.951477 
	C491.182800,556.977783 490.844177,555.121399 490.764099,552.702026 
M499.400421,531.339233 
	C494.138000,532.080383 496.589905,536.122498 496.564789,538.725159 
	C496.539856,541.306702 499.067444,540.897339 500.794159,540.580688 
	C503.708801,540.046082 504.937592,538.020203 504.621338,535.165710 
	C504.337646,532.605103 502.527252,531.610413 499.400421,531.339233 
z"/>
<path fill="#000000" opacity="1.000000" stroke="none" 
	d="
M473.398560,557.005981 
	C463.921112,557.659302 460.610443,554.769897 459.563507,545.804626 
	C458.961456,540.649048 459.064880,535.499390 459.097015,530.341797 
	C459.110199,528.228149 459.477875,526.150269 462.321899,526.355652 
	C464.777283,526.532959 465.020447,528.389771 465.036774,530.351807 
	C465.079712,535.511902 465.106628,540.672729 465.230377,545.831177 
	C465.310669,549.177246 466.430573,551.804138 470.405273,551.738953 
	C474.334686,551.674500 475.471985,548.882568 475.611389,545.685913 
	C475.828857,540.697998 475.719757,535.695618 475.735626,530.699341 
	C475.742218,528.626221 475.717682,526.460632 478.577728,526.386658 
	C481.657532,526.306946 481.309540,528.690063 481.320251,530.645447 
	C481.347626,535.641602 481.527924,540.652283 481.220245,545.630737 
	C480.909241,550.662598 479.333710,555.163574 473.398560,557.005981 
z"/>
<path fill="#000000" opacity="1.000000" stroke="none" 
	d="
M235.194870,555.448303 
	C224.965057,559.704224 218.384232,555.719727 217.774292,545.109070 
	C217.479050,539.972961 217.707993,534.807068 217.689285,529.654663 
	C217.682556,527.800110 218.106781,526.267151 220.386429,526.352051 
	C222.456299,526.429199 223.249863,527.716003 223.256912,529.660645 
	C223.274979,534.646973 223.287460,539.633667 223.347672,544.619568 
	C223.391037,548.211060 224.163818,551.458557 228.572174,551.691833 
	C233.344833,551.944397 233.729416,548.399048 233.836624,544.927551 
	C233.985321,540.112122 233.932175,535.290588 234.069855,530.474609 
	C234.128159,528.435547 234.365051,526.249756 237.229584,526.391846 
	C239.760101,526.517456 239.878983,528.536316 239.949951,530.391602 
	C240.178894,536.377136 240.006088,542.362793 239.190872,548.292480 
	C238.827026,550.939087 237.524506,553.314941 235.194870,555.448303 
z"/>
<path fill="#000000" opacity="1.000000" stroke="none" 
	d="
M322.427795,552.569946 
	C323.035858,554.237549 324.383362,555.832153 322.431519,556.785645 
	C320.675293,557.643616 319.000702,557.061707 317.640472,555.346863 
	C312.958282,549.443909 305.682129,549.522827 300.687836,555.505920 
	C299.097473,557.411194 297.429138,557.487366 294.629791,555.902527 
	C299.234802,546.213928 303.843567,536.517517 308.978699,525.713562 
	C314.771637,534.987671 318.020691,543.874634 322.427795,552.569946 
M308.705872,545.749084 
	C309.925415,545.578674 311.378326,546.127075 312.285034,544.461792 
	C311.823578,542.212830 310.962524,540.053772 309.279572,538.141174 
	C307.448914,539.621460 307.112152,541.629700 306.278076,543.337036 
	C305.426971,545.079346 306.360321,545.715576 308.705872,545.749084 
z"/>
<path fill="#000000" opacity="1.000000" stroke="none" 
	d="
M604.594360,538.229919 
	C606.657166,538.501221 608.371155,538.699890 608.198059,541.093506 
	C608.046387,543.192078 606.467896,543.251892 604.964172,543.362366 
	C601.773071,543.596863 602.054993,545.905090 602.038147,548.101074 
	C602.019409,550.539795 603.060669,551.826843 605.611084,551.764709 
	C606.768005,551.736450 607.937744,551.816650 609.086426,551.965332 
	C610.708008,552.175171 611.276611,553.254395 611.187927,554.791321 
	C611.108154,556.173340 610.333313,557.018982 609.016479,557.045471 
	C605.535583,557.115540 602.045105,557.174988 598.571960,556.987671 
	C596.427551,556.872009 596.061951,555.019043 596.049805,553.304382 
	C595.995667,545.666809 596.018372,538.028809 596.012512,530.390930 
	C596.010376,527.576782 597.307190,526.044800 600.227661,526.061035 
	C602.385559,526.073059 604.547852,525.954834 606.700317,526.058777 
	C608.381653,526.140015 610.170532,526.372192 610.125427,528.722168 
	C610.081177,531.031982 608.378174,531.184875 606.639893,531.322449 
	C604.912598,531.459229 602.625977,530.859131 602.308838,533.477722 
	C602.093506,535.254944 601.083191,537.659973 604.594360,538.229919 
z"/>
<path fill="#000000" opacity="1.000000" stroke="none" 
	d="
M266.321594,549.795532 
	C263.892731,556.860352 256.753967,559.419250 250.513489,555.931458 
	C248.976730,555.072510 248.270432,553.958069 248.887924,552.270752 
	C249.531479,550.512268 250.790726,550.100830 252.465439,550.897888 
	C252.765625,551.040771 253.055435,551.261230 253.370529,551.308228 
	C255.943939,551.691772 259.115723,552.889282 260.294495,549.565552 
	C261.337372,546.625061 258.615723,545.182190 256.358429,544.067017 
	C251.781204,541.805725 248.072968,539.068665 248.703644,533.134705 
	C249.094788,529.454468 251.335388,527.656006 254.567413,526.520508 
	C258.012726,525.309998 261.099823,525.981323 264.011993,527.941223 
	C264.794769,528.468079 264.928284,529.292542 264.528351,530.139832 
	C264.011719,531.234314 263.304840,532.236023 261.943970,532.106323 
	C260.633911,531.981323 259.356934,531.525085 258.047058,531.378601 
	C256.680084,531.225769 255.293381,531.421814 254.635010,532.853455 
	C254.009705,534.213196 254.391571,535.590088 255.493805,536.474304 
	C257.163910,537.814087 258.996277,538.957581 260.796661,540.127686 
	C264.161011,542.314331 266.822418,544.897705 266.321594,549.795532 
z"/>
<path fill="#000000" opacity="1.000000" stroke="none" 
	d="
M196.322540,526.992065 
	C199.784500,525.400330 202.834656,525.602844 205.795319,527.171326 
	C206.960052,527.788391 208.268051,528.467346 207.507278,530.208618 
	C206.919388,531.554199 206.005646,532.345032 204.395370,532.026855 
	C201.917419,531.537292 198.589340,529.720520 197.623138,533.380920 
	C196.674377,536.975220 200.335281,538.262085 202.898193,539.657349 
	C205.932846,541.309326 208.578201,543.291931 209.193924,546.881958 
	C209.832474,550.605042 208.836624,553.855469 205.338150,555.849060 
	C201.168610,558.225159 196.977570,557.464417 192.953613,555.489014 
	C191.592316,554.820801 191.563644,553.328125 192.188904,551.969971 
	C192.784256,550.676880 193.802139,550.445374 195.085663,550.857422 
	C197.940460,551.773682 201.753616,553.285034 203.041687,549.894470 
	C204.584305,545.833801 200.105927,544.682800 197.369339,543.052795 
	C190.202103,538.783691 189.578262,531.961975 196.322540,526.992065 
z"/>
<path fill="#000000" opacity="1.000000" stroke="none" 
	d="
M413.773468,526.226807 
	C415.984955,526.677246 416.136108,527.767090 415.247498,529.189209 
	C414.102905,531.020996 413.031830,532.918091 411.708588,534.615173 
	C407.672974,539.791138 405.372284,545.407715 406.259186,552.148071 
	C406.523834,554.159424 406.830627,556.949646 403.541779,556.929077 
	C400.753448,556.911621 400.517273,554.483154 400.816162,552.518860 
	C401.987518,544.820557 398.756866,538.667114 394.445709,532.761780 
	C393.224060,531.088379 391.564148,529.517395 391.604340,526.704041 
	C399.740692,524.442078 399.039520,533.834839 403.856201,535.801025 
	C408.053802,533.743042 407.354553,526.560669 413.773468,526.226807 
z"/>
<path fill="#000000" opacity="1.000000" stroke="none" 
	d="
M128.010101,545.175659 
	C124.184212,545.172546 120.854759,545.218323 117.527649,545.150146 
	C116.040802,545.119751 114.222008,545.069763 114.280540,542.975952 
	C114.338631,540.897949 116.196793,540.938965 117.653564,540.925415 
	C123.810486,540.868103 129.968231,540.895142 136.125671,540.898743 
	C148.607239,540.906006 161.088943,540.891846 173.570206,540.958923 
	C175.274582,540.968079 177.838715,540.522095 177.770264,543.158752 
	C177.700867,545.830994 175.106766,545.117004 173.443619,545.124268 
	C158.465118,545.189392 143.486237,545.171631 128.010101,545.175659 
z"/>
<path fill="#000000" opacity="1.000000" stroke="none" 
	d="
M631.130005,545.190186 
	C628.370850,544.603638 624.205750,546.772400 624.335205,542.785400 
	C624.435486,539.696045 628.388733,540.937683 630.649170,540.924072 
	C647.604736,540.821960 664.561218,540.869507 681.517456,540.880432 
	C682.845520,540.881287 684.179321,540.897522 685.500000,541.019714 
	C686.735107,541.133972 687.809814,541.613708 687.812683,543.100464 
	C687.815613,544.624695 686.707275,545.015198 685.469238,545.088501 
	C683.977356,545.176880 682.479553,545.192688 680.984314,545.193054 
	C664.526794,545.197205 648.069336,545.192261 631.130005,545.190186 
z"/>
<path fill="#000000" opacity="1.000000" stroke="none" 
	d="
M572.732056,548.906494 
	C572.728394,542.605469 572.884583,536.784180 572.668274,530.976685 
	C572.529419,527.248596 574.090942,525.821045 577.644470,525.995239 
	C579.965271,526.109009 582.297058,525.994263 584.618530,526.100769 
	C586.205261,526.173584 587.705688,526.717651 587.771851,528.604675 
	C587.849792,530.825134 586.231628,531.158020 584.416504,531.354126 
	C582.032288,531.611755 578.698730,530.221191 578.368347,534.521912 
	C578.175232,537.035706 578.718628,538.782959 581.770325,538.710449 
	C583.376648,538.672302 585.351501,538.479492 585.512817,540.900818 
	C585.680359,543.413635 583.741577,543.360718 582.086426,543.339417 
	C579.266663,543.303223 578.255737,544.747559 578.331482,547.381348 
	C578.393494,549.538879 578.328491,551.700745 578.293945,553.860229 
	C578.267639,555.504089 577.793579,556.858948 575.845032,556.964844 
	C573.704590,557.081238 572.892029,555.789490 572.806580,553.876587 
	C572.739868,552.383667 572.755127,550.887085 572.732056,548.906494 
z"/>
<path fill="#000000" opacity="1.000000" stroke="none" 
	d="
M279.666382,552.734741 
	C279.657806,546.958069 279.571686,541.648682 279.687866,536.343628 
	C279.755249,533.265198 279.181274,531.080811 275.414917,531.287537 
	C273.675690,531.382935 271.947662,531.014587 271.999969,528.696472 
	C272.044495,526.723694 273.628815,526.261353 275.139618,526.220459 
	C279.778381,526.094849 284.422363,526.073486 289.062561,526.136658 
	C290.582794,526.157349 292.116180,526.570007 292.183136,528.584778 
	C292.247314,530.517212 291.041748,531.286621 289.342346,531.237305 
	C285.516174,531.126343 285.163361,533.561462 285.190308,536.496948 
	C285.240570,541.969604 285.196716,547.443359 285.162842,552.916504 
	C285.151184,554.803284 285.032410,556.797729 282.524017,556.928223 
	C279.962524,557.061462 279.711761,555.149353 279.666382,552.734741 
z"/>
<path fill="#000000" opacity="1.000000" stroke="none" 
	d="
M543.321655,551.705322 
	C545.607971,551.971619 548.168030,551.268555 548.169373,554.351318 
	C548.170837,557.715515 545.436340,556.966980 543.407104,557.173767 
	C543.077637,557.207397 542.742310,557.180603 542.409668,557.184570 
	C534.669739,557.277161 534.663452,557.277222 534.658630,549.685303 
	C534.654541,543.199463 534.668579,536.713562 534.671326,530.227722 
	C534.672180,528.308472 534.724365,526.389160 537.388245,526.430237 
	C539.897644,526.468933 540.241455,528.216980 540.241272,530.217957 
	C540.240784,535.872253 540.239929,541.526672 540.289001,547.180664 
	C540.305908,549.132202 539.938538,551.391418 543.321655,551.705322 
z"/>
<path fill="#000000" opacity="1.000000" stroke="none" 
	d="
M334.840485,526.638306 
	C337.102844,528.543396 336.248230,530.836243 336.280396,532.889099 
	C336.386963,539.688416 336.320892,546.490723 336.292694,553.291687 
	C336.285553,555.010986 336.137085,556.785583 333.845490,556.894958 
	C331.375702,557.012939 330.800507,555.306641 330.794128,553.291138 
	C330.769440,545.495117 330.783234,537.699036 330.773956,529.902954 
	C330.770996,527.433167 331.848663,526.158936 334.840485,526.638306 
z"/>
<path fill="#000000" opacity="1.000000" stroke="none" 
	d="
M556.816101,530.408813 
	C556.875488,527.895630 557.481812,526.258423 559.946289,526.386536 
	C562.704773,526.529907 562.338135,528.708557 562.350159,530.469971 
	C562.401367,537.966309 562.402893,545.463135 562.373535,552.959656 
	C562.366394,554.779663 562.508301,556.878967 559.827209,556.982422 
	C556.880371,557.096130 556.830627,554.908997 556.821960,552.853760 
	C556.791016,545.523743 556.805603,538.193604 556.816101,530.408813 
z"/>
</svg>